<?xml version="1.0" encoding="UTF-8" standalone="no"?>
<svg width="328px" height="147px" viewBox="0 0 328 147" version="1.1" xmlns="http://www.w3.org/2000/svg" xmlns:xlink="http://www.w3.org/1999/xlink">
    <!-- Generator: Sketch 48 (47235) - http://www.bohemiancoding.com/sketch -->
    <title>配图</title>
    <desc>Created with Sketch.</desc>
    <defs></defs>
    <g id="门户" stroke="none" stroke-width="1" fill="none" fill-rule="evenodd" transform="translate(-168.000000, -2302.000000)">
        <g id="简单可靠的技术" transform="translate(0.000000, 1650.000000)">
            <g id="AntDesign" transform="translate(162.000000, 415.000000)">
                <g id="配图">
                    <g id="Group" transform="translate(138.000000, 237.000000)">
                        <rect id="Rectangle-6" fill-opacity="0.55" fill="#40A9FF" x="22" y="0" width="20" height="20"></rect>
                        <rect id="Rectangle-6" fill-opacity="0.6" fill="#40A9FF" x="22" y="23.5" width="20" height="20"></rect>
                        <rect id="Rectangle-8" fill="#EB2F96" x="22" y="43.5" width="20" height="1.5"></rect>
                        <rect id="Rectangle-8" fill="#A23AFF" x="22" y="20" width="20" height="1.5"></rect>
                        <rect id="Rectangle-8" fill="#FADB14" x="44" y="20" width="20" height="1.5"></rect>
                        <rect id="Rectangle-8" fill="#26ADFF" x="0" y="20" width="20" height="1.5"></rect>
                        <rect id="Rectangle-6" fill-opacity="0.55" fill="#40A9FF" x="44" y="0" width="20" height="20"></rect>
                        <rect id="Rectangle-6" fill-opacity="0.55" fill="#40A9FF" x="0" y="0" width="20" height="20"></rect>
                    </g>
                    <rect id="Rectangle-6" fill="#1890FF" opacity="0.35" x="116" y="324" width="20" height="20"></rect>
                    <rect id="Rectangle-6" fill="#1890FF" opacity="0.4" x="116" y="300.5" width="20" height="20"></rect>
                    <rect id="Rectangle-8" fill="#A7E213" opacity="0.9" x="116" y="298.5" width="20" height="1.5"></rect>
                    <rect id="Rectangle-8" fill="#FA8C16" opacity="0.45" x="116" y="323" width="20" height="1.5"></rect>
                    <rect id="Rectangle-8" fill="#26ADFF" opacity="0.9" x="138" y="323" width="20" height="1.5"></rect>
                    <rect id="Rectangle-8" fill="#13C2C2" opacity="0.45" x="94" y="323" width="20" height="1.5"></rect>
                    <rect id="Rectangle-6" fill="#1890FF" opacity="0.35" x="138" y="324" width="20" height="20"></rect>
                    <rect id="Rectangle-6" fill="#1890FF" opacity="0.3" x="94" y="324" width="20" height="20"></rect>
                    <rect id="Rectangle-6" fill="#1890FF" opacity="0.25" x="50" y="324" width="20" height="20"></rect>
                    <rect id="Rectangle-6" fill="#1890FF" opacity="0.3" x="72" y="324" width="20" height="20"></rect>
                    <rect id="Rectangle-6" fill="#1890FF" opacity="0.35" x="204" y="324" width="20" height="20"></rect>
                    <rect id="Rectangle-6" fill="#1890FF" opacity="0.4" x="204" y="300.5" width="20" height="20"></rect>
                    <rect id="Rectangle-8" fill="#13C2C2" opacity="0.9" x="204" y="298.5" width="20" height="1.5"></rect>
                    <rect id="Rectangle-8" fill="#FA8C16" opacity="0.45" x="204" y="323" width="20" height="1.5"></rect>
                    <rect id="Rectangle-8" fill="#FADB14" opacity="0.45" x="226" y="323" width="20" height="1.5"></rect>
                    <rect id="Rectangle-8" fill="#FADB14" opacity="0.9" x="182" y="323" width="20" height="1.5"></rect>
                    <rect id="Rectangle-6" fill="#1890FF" opacity="0.3" x="226" y="324" width="20" height="20"></rect>
                    <rect id="Rectangle-6" fill="#1890FF" opacity="0.35" x="182" y="324" width="20" height="20"></rect>
                    <rect id="Rectangle-6" fill="#1890FF" opacity="0.3" x="248" y="324" width="20" height="20"></rect>
                    <rect id="Rectangle-6" fill="#1890FF" opacity="0.2" x="116" y="347" width="20" height="20"></rect>
                    <rect id="Rectangle-8" fill="#FA8C16" opacity="0.2" x="116" y="346" width="20" height="1.5"></rect>
                    <rect id="Rectangle-8" fill="#FADB14" opacity="0.35" x="138" y="346" width="20" height="1.5"></rect>
                    <rect id="Rectangle-6" fill="#1890FF" opacity="0.2" x="138" y="347" width="20" height="20"></rect>
                    <rect id="Rectangle-8" fill="#EB2F96" opacity="0.8" x="160" y="346" width="20" height="1.5"></rect>
                    <rect id="Rectangle-6" fill="#1890FF" opacity="0.3" x="160" y="347" width="20" height="20"></rect>
                    <rect id="Rectangle-6" fill="#1890FF" opacity="0.15" x="94" y="347" width="20" height="20"></rect>
                    <rect id="Rectangle-6" fill="#1890FF" opacity="0.1" x="50" y="347" width="20" height="20"></rect>
                    <rect id="Rectangle-6" fill="#1890FF" opacity="0.15" x="72" y="347" width="20" height="20"></rect>
                    <rect id="Rectangle-6" fill="#1890FF" opacity="0.1" x="28" y="347" width="20" height="20"></rect>
                    <rect id="Rectangle-6" fill="#1890FF" opacity="0.2" x="204" y="347" width="20" height="20"></rect>
                    <rect id="Rectangle-8" fill="#FA8C16" opacity="0.2" x="204" y="346" width="20" height="1.5"></rect>
                    <rect id="Rectangle-8" fill="#13C2C2" opacity="0.35" x="182" y="346" width="20" height="1.5"></rect>
                    <rect id="Rectangle-6" fill="#1890FF" opacity="0.15" x="226" y="347" width="20" height="20"></rect>
                    <rect id="Rectangle-6" fill="#1890FF" opacity="0.2" x="182" y="347" width="20" height="20"></rect>
                    <rect id="Rectangle-6" fill="#1890FF" opacity="0.1" x="270" y="347" width="20" height="20"></rect>
                    <rect id="Rectangle-6" fill="#1890FF" opacity="0.1" x="292" y="347" width="20" height="20"></rect>
                    <rect id="Rectangle-6" fill="#1890FF" opacity="0.15" x="248" y="347" width="20" height="20"></rect>
                    <rect id="Rectangle-6" fill="#1890FF" opacity="0.08" x="116" y="369" width="20" height="20"></rect>
                    <rect id="Rectangle-6" fill="#1890FF" opacity="0.1" x="138" y="369" width="20" height="20"></rect>
                    <rect id="Rectangle-6" fill="#1890FF" opacity="0.1" x="160" y="369" width="20" height="20"></rect>
                    <rect id="Rectangle-6" fill="#1890FF" opacity="0.08" x="94" y="369" width="20" height="20"></rect>
                    <rect id="Rectangle-6" fill="#1890FF" opacity="0.05" x="50" y="369" width="20" height="20"></rect>
                    <rect id="Rectangle-6" fill="#1890FF" opacity="0.08" x="72" y="369" width="20" height="20"></rect>
                    <rect id="Rectangle-6" fill="#1890FF" opacity="0.05" x="28" y="369" width="20" height="20"></rect>
                    <rect id="Rectangle-6" fill="#1890FF" opacity="0.05" x="6" y="369" width="20" height="20"></rect>
                    <rect id="Rectangle-6" fill="#1890FF" opacity="0.08" x="204" y="369" width="20" height="20"></rect>
                    <rect id="Rectangle-6" fill="#1890FF" opacity="0.08" x="226" y="369" width="20" height="20"></rect>
                    <rect id="Rectangle-6" fill="#1890FF" opacity="0.1" x="182" y="369" width="20" height="20"></rect>
                    <rect id="Rectangle-6" fill="#1890FF" opacity="0.05" x="270" y="369" width="20" height="20"></rect>
                    <rect id="Rectangle-6" fill="#1890FF" opacity="0.05" x="292" y="369" width="20" height="20"></rect>
                    <rect id="Rectangle-6" fill="#1890FF" opacity="0.05" x="314" y="369" width="20" height="20"></rect>
                    <rect id="Rectangle-6" fill="#1890FF" opacity="0.08" x="248" y="369" width="20" height="20"></rect>
                </g>
            </g>
        </g>
    </g>
</svg>