<?xml version="1.0" encoding="UTF-8" standalone="no"?>
<svg width="66px" height="68px" viewBox="0 0 66 68" version="1.1" xmlns="http://www.w3.org/2000/svg" xmlns:xlink="http://www.w3.org/1999/xlink">
    <!-- Generator: Sketch 48 (47235) - http://www.bohemiancoding.com/sketch -->
    <title>插图</title>
    <desc>Created with Sketch.</desc>
    <defs></defs>
    <g id="门户" stroke="none" stroke-width="1" fill="none" fill-rule="evenodd" transform="translate(-1068.000000, -1202.000000)">
        <g id="自然好用的设计" transform="translate(266.000000, 968.000000)">
            <g id="可视化语言" transform="translate(743.000000, 176.000000)">
                <g id="插图" transform="translate(59.000000, 58.000000)">
                    <path d="M31.7466042,64.7505828 C34.3822014,64.7505828 36.993911,64.3939394 39.5259953,63.6806527 C37.0098361,64.386014 34.3981265,64.7505828 31.7466042,64.7505828 C31.7466042,64.7505828 31.7466042,64.7505828 31.7466042,64.7505828 Z" id="Shape"></path>
                    <path d="M27.2079625,8.53566434 L27.2079625,8.52773893 C24.0946136,9.01911422 21.1166276,10.0177156 18.3456674,11.4839161 C15.5667447,12.9501166 13.0665105,14.8601399 10.9086651,17.1585082 C9.36393443,18.7990676 8.04215457,20.5981352 6.94332553,22.5160839 C8.03419204,20.6060606 9.36393443,18.806993 10.9086651,17.1664336 C15.2641686,12.5300699 20.9812646,9.51841492 27.2079625,8.53566434 Z" id="Shape"></path>
                    <path d="M39.5498829,3.4951049 C39.0721311,3.4 38.5943794,3.31282051 38.1166276,3.24149184 L38.1166276,28.5473193 L39.5498829,28.5473193 L39.5498829,3.4951049 Z" id="Shape"></path>
                    <path d="M27.2079625,37.0195804 L27.2079625,38.3431235 L48.4440281,59.3850816 C47.3850117,60.1459207 46.2861827,60.8275058 45.1395785,61.4377622 C46.2861827,60.8275058 47.3929742,60.1459207 48.4519906,59.3850816 L28.147541,39.2624709 C27.5503513,38.6680653 27.2079625,37.8596737 27.2079625,37.0195804 Z" id="Shape"></path>
                    <path d="M31.3325527,37.9468531 C30.7274005,37.3524476 30.3929742,36.5440559 30.3929742,35.7039627 L30.3929742,8.52773893 C30.3929742,8.36130536 30.3770492,8.19487179 30.3531616,8.02843823 C30.0744731,6.3006993 28.4421546,5.11981352 26.7063232,5.3972028 C23.2505855,5.95198135 19.9302108,7.05361305 16.8487119,8.69417249 C13.7672131,10.3268065 10.9803279,12.4508159 8.58360656,15.0027972 C3.08946136,20.8438228 0.0637002342,28.4680653 0.0637002342,36.4727273 C0.0637002342,40.7286713 0.907728337,44.841958 2.5559719,48.7174825 C4.15644028,52.4662005 6.44168618,55.8265734 9.34800937,58.7193473 C12.2702576,61.6041958 15.6543326,63.8708625 19.4206089,65.4559441 C23.3222482,67.0965035 27.470726,67.9286713 31.7466042,67.9286713 C35.0669789,67.9286713 38.3555035,67.4135198 41.5166276,66.3990676 C44.6697892,65.3846154 47.6318501,63.8867133 50.3152225,61.9608392 C50.458548,61.8578089 50.5859485,61.7468531 50.7053864,61.627972 C51.947541,60.383683 51.947541,58.3785548 50.6974239,57.1421911 L31.3325527,37.9468531 Z M45.1395785,61.4377622 C45.0758782,61.4694639 45.012178,61.5011655 44.9484778,61.5328671 C44.8449649,61.588345 44.7494145,61.6358974 44.6459016,61.6913753 C44.5105386,61.762704 44.3672131,61.8261072 44.2238876,61.8974359 C44.2,61.9132867 44.1761124,61.9212121 44.1522248,61.9370629 C42.981733,62.4997669 41.7793911,62.9832168 40.5372365,63.3794872 C40.2028103,63.4904429 39.8604215,63.5934732 39.5259953,63.6885781 C36.993911,64.4018648 34.3901639,64.7585082 31.7466042,64.7585082 C31.7466042,64.7585082 31.7466042,64.7585082 31.7466042,64.7585082 C27.9007026,64.7585082 24.1662763,64.0135198 20.6548009,62.5393939 C17.2627635,61.1207459 14.2210773,59.0759907 11.5934426,56.4764569 C8.98173302,53.8769231 6.91943794,50.8494172 5.48618267,47.4811189 C4.10070258,44.2317016 3.35222482,40.7920746 3.25667447,37.2414918 C3.25667447,37.225641 3.25667447,37.2097902 3.25667447,37.186014 C3.24871194,36.9482517 3.24871194,36.7104895 3.24871194,36.4727273 C3.24871194,31.5272727 4.53864169,26.7403263 6.94332553,22.5240093 C8.04215457,20.6060606 9.36393443,18.806993 10.9086651,17.1664336 C13.0665105,14.8680653 15.5667447,12.958042 18.3456674,11.4918415 C21.1166276,10.025641 24.0946136,9.02703963 27.2079625,8.53566434 L27.2079625,8.54358974 L27.2079625,37.0275058 C27.2079625,37.8675991 27.5503513,38.6759907 28.147541,39.2703963 L48.4519906,59.393007 C47.3929742,60.1459207 46.2861827,60.8275058 45.1395785,61.4377622 Z" id="Shape" fill="#0D1A26" fill-rule="nonzero"></path>
                    <path d="M36.6850117,31.6461538 L62.204918,31.6461538 C62.3641686,31.6461538 62.5234192,31.630303 62.6826698,31.5986014 C64.4185012,31.3370629 65.604918,29.7282051 65.3421546,28.0004662 C64.8086651,24.5053613 63.7257611,21.1291375 62.1173302,17.9668998 C60.5088993,14.804662 58.4067916,11.9277389 55.8826698,9.41538462 C53.3505855,6.9030303 50.4522248,4.82657343 47.2672131,3.22564103 C44.0822014,1.63263403 40.6742389,0.554778555 37.1548009,0.0317016317 C37.0035129,0.00792540793 36.8442623,0 36.6850117,0 C34.9252927,0 33.5,1.41864802 33.5,3.17016317 L33.5,28.4759907 C33.5,30.2275058 34.9252927,31.6461538 36.6850117,31.6461538 Z M36.6850117,3.17016317 C37.1627635,3.24149184 37.6405152,3.32867133 38.118267,3.42377622 C40.7936768,3.95477855 43.3894614,4.84242424 45.8419204,6.06293706 C48.7323185,7.50536131 51.3519906,9.39160839 53.6451991,11.6662005 C55.930445,13.9407925 57.8255269,16.5403263 59.2826698,19.4013986 C60.7318501,22.2624709 61.7192037,25.3137529 62.1969555,28.4759907 L38.118267,28.4759907 L36.6850117,28.4759907 L36.6850117,3.17016317 Z" id="Shape" fill="#0D1A26" fill-rule="nonzero"></path>
                    <path d="M63.3278689,34.6960373 L35.8014052,34.6960373 C34.8857143,34.6960373 34.1531616,35.4568765 34.2088993,36.3762238 C34.2327869,36.7804196 34.4238876,37.1529138 34.7105386,37.4382284 L54.2266979,56.6335664 C54.8796253,57.2675991 55.9227166,57.2438228 56.5358314,56.5701632 C61.4327869,51.1571096 64.5302108,44.1034965 64.9203747,36.3524476 C64.9681499,35.448951 64.2355972,34.6960373 63.3278689,34.6960373 Z" id="Shape" fill="#AB33F7" fill-rule="nonzero"></path>
                    <path d="M59.5554135,42.4625578 C59.9182689,43.2643388 60.0996966,44.0695879 60.0996966,44.878305 C60.0996966,45.6932048 59.9154843,46.5116259 59.5470595,47.3335683 L59.5470217,47.3335514 C59.2963833,47.8927166 58.6399078,48.142827 58.0807426,47.8921886 C57.6418693,47.6954695 57.3797081,47.2383976 57.4314999,46.7602493 C57.5010303,46.118337 57.5357955,45.4795996 57.5357955,44.8440372 C57.5357955,44.2385209 57.5042397,43.6358864 57.441128,43.0361338 L57.4411679,43.0361296 C57.3770405,42.4267251 57.819075,41.8807196 58.4284795,41.8165922 C58.9040818,41.7665448 59.3582377,42.0268698 59.5554135,42.4625578 Z" id="Rectangle" fill="#FFFFFF" transform="translate(58.762355, 44.899994) rotate(25.000000) translate(-58.762355, -44.899994) "></path>
                </g>
            </g>
        </g>
    </g>
</svg>