<?xml version="1.0" encoding="UTF-8" standalone="no"?>
<svg width="62px" height="80px" viewBox="0 0 62 80" version="1.1" xmlns="http://www.w3.org/2000/svg" xmlns:xlink="http://www.w3.org/1999/xlink">
    <!-- Generator: Sketch 48 (47235) - http://www.bohemiancoding.com/sketch -->
    <title>插图</title>
    <desc>Created with Sketch.</desc>
    <defs></defs>
    <g id="门户" stroke="none" stroke-width="1" fill="none" fill-rule="evenodd" transform="translate(-325.000000, -1196.000000)">
        <g id="自然好用的设计" transform="translate(266.000000, 968.000000)">
            <g id="设计价值观" transform="translate(0.000000, 176.000000)">
                <g id="插图" transform="translate(59.000000, 52.000000)">
                    <path d="M45.725,53.3837229 C53.1872935,48.5870075 58.125,40.2504581 58.125,30.7692308 C58.125,15.900026 45.9807238,3.84615385 31,3.84615385 C16.0192762,3.84615385 3.875,15.900026 3.875,30.7692308 C3.875,40.2504581 8.8127065,48.5870075 16.275,53.3837229 L16.275,63.9423077 L45.725,63.9423077 L45.725,53.3837229 Z M12.4,55.3868688 C4.87043045,49.7732914 0,40.835802 0,30.7692308 C0,13.7758539 13.8791728,0 31,0 C48.1208272,0 62,13.7758539 62,30.7692308 C62,40.835802 57.1295696,49.7732914 49.6,55.3868688 L49.6,63.8461538 C49.6,65.970326 47.8780183,67.6923077 45.7538462,67.6923077 L16.2461538,67.6923077 C14.1219817,67.6923077 12.4,65.970326 12.4,63.8461538 L12.4,55.3868688 Z M21.2980769,76.1538462 L40.7019231,76.1538462 C41.7640091,76.1538462 42.625,77.014837 42.625,78.0769231 C42.625,79.1390091 41.7640091,80 40.7019231,80 L21.2980769,80 C20.2359909,80 19.375,79.1390091 19.375,78.0769231 C19.375,77.014837 20.2359909,76.1538462 21.2980769,76.1538462 Z M24.7884615,55.5769231 L37.2115385,55.5769231 C38.0612073,55.5769231 38.75,56.2657158 38.75,57.1153846 C38.75,57.9650535 38.0612073,58.6538462 37.2115385,58.6538462 L24.7884615,58.6538462 C23.9387927,58.6538462 23.25,57.9650535 23.25,57.1153846 C23.25,56.2657158 23.9387927,55.5769231 24.7884615,55.5769231 Z M24.7884615,49.4230769 L37.2115385,49.4230769 C38.0612073,49.4230769 38.75,50.1118696 38.75,50.9615385 C38.75,51.8112073 38.0612073,52.5 37.2115385,52.5 L24.7884615,52.5 C23.9387927,52.5 23.25,51.8112073 23.25,50.9615385 C23.25,50.1118696 23.9387927,49.4230769 24.7884615,49.4230769 Z" id="Combined-Shape" fill="#1C2833"></path>
                    <circle id="Oval-2" fill="#FF54B2" cx="31" cy="29" r="14"></circle>
                    <circle id="Oval-7" fill="#FFFFFF" cx="27" cy="25" r="2"></circle>
                </g>
            </g>
        </g>
    </g>
</svg>