<?xml version="1.0" encoding="UTF-8" standalone="no"?>
<svg width="72px" height="72px" viewBox="0 0 72 72" version="1.1" xmlns="http://www.w3.org/2000/svg" xmlns:xlink="http://www.w3.org/1999/xlink">
    <!-- Generator: Sketch 48 (47235) - http://www.bohemiancoding.com/sketch -->
    <title>插图</title>
    <desc>Created with Sketch.</desc>
    <defs></defs>
    <g id="门户" stroke="none" stroke-width="1" fill="none" fill-rule="evenodd" transform="translate(-686.000000, -1202.000000)">
        <g id="自然好用的设计" transform="translate(266.000000, 968.000000)">
            <g id="视觉语言" transform="translate(364.000000, 176.000000)">
                <g id="插图" transform="translate(56.000000, 58.000000)">
                    <path d="M61.6570156,38.6598214 C63.5331849,37.2294643 65.4093541,35.6464286 67.2855234,33.9107143 C65.4093541,35.6383929 63.5331849,37.2214286 61.6570156,38.6598214 Z" id="Shape"></path>
                    <path d="M52.0516704,44.6464286 C54.1683742,43.6258929 56.3091314,42.3964286 58.4498886,40.9580357 L58.4498886,40.95 C56.3091314,42.3883929 54.1683742,43.6258929 52.0516704,44.6464286 Z" id="Shape"></path>
                    <path d="M4.72249443,33.9026786 C4.71447661,33.9107143 4.71447661,33.9107143 4.72249443,33.9026786 C6.59064588,35.6383929 8.47483296,37.2214286 10.3429844,38.6517857 C8.46681514,37.2214286 6.59064588,35.6383929 4.72249443,33.9026786 Z" id="Shape"></path>
                    <path d="M52.0516704,44.6464286 C51.1296214,45.0883929 50.2155902,45.4901786 49.2935412,45.8598214 C50.2155902,45.4901786 51.1376392,45.0883929 52.0516704,44.6464286 Z" id="Shape"></path>
                    <path d="M18.2806236,33.9026786 C18.2806236,29.2660714 20.0525612,25.03125 22.9550111,21.8651786 C22.9550111,21.8651786 22.9469933,21.8651786 22.9469933,21.8732143 C20.0445434,25.0392857 18.2806236,29.2580357 18.2806236,33.8946429 C18.2806236,33.9026786 18.2806236,33.9026786 18.2806236,33.9026786 Z" id="Shape"></path>
                    <path d="M54.2405345,47.1535714 C54.1443207,47.19375 54.0561247,47.2419643 53.9599109,47.2901786 C53.9037862,47.3142857 53.8396437,47.3464286 53.7755011,47.3785714 C53.6632517,47.4348214 53.5429844,47.4910714 53.430735,47.5473214 C53.430735,47.5473214 53.4227171,47.5553571 53.4146993,47.5553571 C53.3184855,47.6035714 53.2222717,47.64375 53.1260579,47.6919643 C53.0378619,47.7321429 52.9576837,47.7723214 52.8694878,47.8125 C52.725167,47.8848214 52.5808463,47.9491071 52.4365256,48.0133929 C52.3964365,48.0294643 52.3643653,48.0455357 52.332294,48.0616071 C47.0886414,50.4321429 41.7808463,51.6696429 36.5371938,51.75 C36.4249443,51.75 36.3046771,51.75 36.1924276,51.75 C36.1523385,51.75 36.1122494,51.75 36.0721604,51.75 C36.0641425,51.75 36.0481069,51.75 36.0400891,51.75 C36.0240535,51.75 36.0080178,51.75 35.9919822,51.75 C35.8075724,51.75 35.6311804,51.7419643 35.4467706,51.7419643 C34.8614699,51.7339286 34.2761693,51.7098214 33.6828508,51.6696429 C30.7643653,51.4848214 27.8378619,50.9383929 24.9113586,50.0464286 C23.1554566,49.5080357 21.3995546,48.8410714 19.6436526,48.0535714 C19.6115813,48.0375 19.57951,48.0214286 19.5474388,48.0053571 C19.403118,47.9410714 19.2587973,47.86875 19.1144766,47.8044643 C19.0262806,47.7642857 18.9461024,47.7241071 18.8579065,47.6839286 C18.7616927,47.6357143 18.6654788,47.5955357 18.569265,47.5473214 C18.569265,47.5473214 18.5612472,47.5392857 18.5532294,47.5392857 C18.4329621,47.4830357 18.3207127,47.4267857 18.2084633,47.3705357 C18.1443207,47.3464286 18.0801782,47.3142857 18.0160356,47.2821429 C17.9278396,47.2339286 17.8396437,47.19375 17.7514477,47.1455357 C17.5910913,47.0651786 17.4227171,46.9848214 17.2623608,46.8964286 C16.0195991,46.2535714 14.7848552,45.5544643 13.5420935,44.7830357 L13.5420935,59.7857143 L13.5420935,65.5714286 C13.5420935,67.3473214 14.9772829,68.7857143 16.7492205,68.7857143 L17.3906459,68.7857143 C19.1625835,68.7857143 20.5977728,67.3473214 20.5977728,65.5714286 L20.5977728,61.3928571 C20.5977728,60.5089286 21.3193764,59.7857143 22.2013363,59.7857143 L23.8048998,59.7857143 L58.4418708,59.7857143 L58.4418708,44.7830357 C57.1991091,45.5544643 55.9563474,46.2616071 54.7216036,46.9044643 C54.569265,46.9848214 54.4008909,47.0732143 54.2405345,47.1535714 Z" id="Shape"></path>
                    <path d="M54.3287305,20.7160714 C55.7077951,21.4151786 57.0788419,22.1866071 58.4498886,23.0303571 L58.4498886,3.21428571 L13.5501114,3.21428571 L13.5501114,15.4285714 L13.5501114,23.0383929 C14.9291759,22.1866071 16.3002227,21.4071429 17.6792873,20.7160714 C16.3082405,21.4151786 14.9291759,22.1866071 13.5501114,23.0464286 L13.5501114,23.0544643 C14.9291759,22.1946429 16.3082405,21.4232143 17.6792873,20.7241071 C17.7995546,20.6678571 17.911804,20.6035714 18.0320713,20.5473214 C18.0721604,20.53125 18.1202673,20.5071429 18.1683742,20.4830357 C18.3046771,20.41875 18.4329621,20.3544643 18.5612472,20.2901786 C18.569265,20.2901786 18.5772829,20.2821429 18.5853007,20.2821429 C18.6654788,20.2419643 18.7536748,20.2017857 18.833853,20.1616071 C18.9300668,20.1133929 19.0262806,20.0732143 19.1224944,20.025 C19.2587973,19.9607143 19.3951002,19.9044643 19.5314031,19.8401786 C19.5714922,19.8241071 19.6195991,19.8 19.6596882,19.7839286 C24.9113586,17.4133929 30.2111359,16.1758929 35.4547884,16.0955357 C35.6391982,16.0875 35.8155902,16.0875 36,16.0875 C36.0160356,16.0875 36.0320713,16.0875 36.0481069,16.0875 C36.0561247,16.0875 36.0721604,16.0875 36.0801782,16.0875 C36.1202673,16.0875 36.1603563,16.0875 36.2004454,16.0875 C36.3126949,16.0875 36.4329621,16.0875 36.5452116,16.0875 C41.7888641,16.1678571 47.0886414,17.4053571 52.3403118,19.7758929 C52.3804009,19.7919643 52.4285078,19.8160714 52.4685969,19.8321429 C52.6048998,19.8883929 52.7412027,19.9526786 52.8775056,20.0169643 C52.9737194,20.0571429 53.0699332,20.1053571 53.166147,20.1535714 C53.2463252,20.19375 53.3345212,20.2339286 53.4146993,20.2741071 C53.4227171,20.2741071 53.430735,20.2821429 53.4387528,20.2821429 C53.5670379,20.3464286 53.7033408,20.4107143 53.8316258,20.475 C53.8797327,20.4910714 53.9198218,20.5151786 53.9679287,20.5392857 C54.088196,20.6035714 54.2084633,20.6598214 54.3287305,20.7241071 C55.6997773,21.4232143 57.0708241,22.1946429 58.4498886,23.0544643 L58.4498886,23.0464286 C57.0708241,22.1866071 55.6997773,21.4151786 54.3287305,20.7160714 Z M21.6481069,18.9241071 C20.9906459,19.1892857 20.325167,19.4705357 19.6596882,19.7678571 C20.3171492,19.4705357 20.9826281,19.1892857 21.6481069,18.9241071 C26.2503341,17.1 30.8525612,16.1517857 35.4547884,16.0794643 C30.8685969,16.1517857 26.2423163,17.1 21.6481069,18.9241071 Z M50.3518931,18.9241071 C45.7576837,17.1 41.1314031,16.1517857 36.5452116,16.0794643 C41.1474388,16.1517857 45.7496659,17.1 50.3518931,18.9241071 C51.0173719,19.1892857 51.674833,19.4705357 52.3403118,19.7678571 C51.674833,19.4705357 51.0173719,19.1892857 50.3518931,18.9241071 Z" id="Shape"></path>
                    <path d="M7.13585746,3.21428571 L6.49443207,3.21428571 C4.72249443,3.21428571 3.28730512,4.65267857 3.28730512,6.42857143 L3.28730512,12.2142857 L10.3429844,12.2142857 L10.3429844,6.42857143 C10.3429844,4.65267857 8.9077951,3.21428571 7.13585746,3.21428571 Z" id="Shape"></path>
                    <path d="M22.9550111,45.9723214 C22.9469933,45.95625 22.9309577,45.9482143 22.9229399,45.9321429 C21.9287305,45.5464286 20.942539,45.1125 19.9483296,44.6383929 C17.8316258,43.6178571 15.6908686,42.3883929 13.5501114,40.95 C15.6908686,42.3883929 17.8316258,43.6178571 19.9483296,44.6464286 C20.9505568,45.1285714 21.952784,45.5705357 22.9550111,45.9723214 Z" id="Shape"></path>
                    <path d="M65.5055679,68.7696429 L58.4498886,68.7696429 C56.677951,68.7696429 55.2427617,67.33125 55.2427617,65.5633929 L55.2427617,63 L23.8129176,63 L23.8129176,65.25 C23.8129176,66.54375 23.4521158,67.7571429 22.8187082,68.7857143 L58.4498886,68.7857143 L65.5055679,68.7857143 C67.2775056,68.7857143 68.7126949,67.3473214 68.7126949,65.5714286 L68.7126949,65.5633929 C68.7126949,67.33125 67.2775056,68.7696429 65.5055679,68.7696429 Z" id="Shape"></path>
                    <path d="M58.4498886,40.95 C59.5162584,40.2428571 60.5906459,39.4714286 61.6570156,38.6598214 L61.6570156,38.6517857 C60.5906459,39.4714286 59.5162584,40.2348214 58.4498886,40.95 Z" id="Shape" fill="#0D1A26" fill-rule="nonzero"></path>
                    <path d="M58.4498886,23.0544643 C59.5162584,23.7214286 60.5906459,24.4285714 61.6570156,25.1919643 L61.6570156,25.1839286 C60.5906459,24.4205357 59.5162584,23.7053571 58.4498886,23.0544643 Z" id="Shape" fill="#0D1A26" fill-rule="nonzero"></path>
                    <path d="M13.5501114,23.0464286 C12.4837416,23.7133929 11.4093541,24.4205357 10.3429844,25.1839286 L10.3429844,25.1919643 C11.4093541,24.4285714 12.4837416,23.7214286 13.5501114,23.0464286 Z" id="Shape" fill="#0D1A26" fill-rule="nonzero"></path>
                    <path d="M13.5501114,15.4285714 L13.5501114,3.21428571 L58.4498886,3.21428571 L58.4498886,23.0303571 C59.5162584,23.6973214 60.5906459,24.4125 61.6570156,25.1678571 L61.6570156,3.21428571 C61.6570156,1.43839286 60.2218263,0 58.4498886,0 L13.5501114,0 L5.85300668,0 C2.66191537,0 0.0801781737,2.5875 0.0801781737,5.78571429 L0.0801781737,12.8571429 C0.0801781737,14.2794643 1.22672606,15.4285714 2.64587973,15.4285714 L10.3429844,15.4285714 L10.3429844,25.1758929 C11.4093541,24.4125 12.4837416,23.7053571 13.5501114,23.0383929 L13.5501114,15.4285714 Z M10.3429844,12.2142857 L3.28730512,12.2142857 L3.28730512,6.42857143 C3.28730512,4.65267857 4.72249443,3.21428571 6.49443207,3.21428571 L7.13585746,3.21428571 C8.9077951,3.21428571 10.3429844,4.65267857 10.3429844,6.42857143 L10.3429844,12.2142857 Z" id="Shape" fill="#0D1A26" fill-rule="nonzero"></path>
                    <path d="M69.3541203,59.7857143 L61.6570156,59.7857143 L61.6570156,42.6455357 C61.4325167,42.80625 61.2160356,42.9589286 60.9915367,43.1116071 C60.9193764,43.1598214 60.847216,43.2080357 60.7750557,43.25625 C60.7109131,43.2964286 60.6547884,43.3366071 60.5906459,43.3767857 C60.5184855,43.425 60.4383073,43.48125 60.366147,43.5294643 C60.2699332,43.59375 60.1737194,43.6580357 60.0775056,43.7223214 C60.0614699,43.7303571 60.0454343,43.7464286 60.0293987,43.7544643 C59.5002227,44.1080357 58.9790646,44.4455357 58.4498886,44.775 L58.4498886,59.7857143 L23.8129176,59.7857143 L22.2093541,59.7857143 C21.3273942,59.7857143 20.6057906,60.5089286 20.6057906,61.3928571 L20.6057906,65.5714286 C20.6057906,67.3473214 19.1706013,68.7857143 17.3986637,68.7857143 L16.7572383,68.7857143 C14.9853007,68.7857143 13.5501114,67.3473214 13.5501114,65.5714286 L13.5501114,59.7857143 L13.5501114,44.7830357 C12.4837416,44.1160714 11.4093541,43.4008929 10.3429844,42.6455357 L10.3429844,63 L10.3429844,64.4464286 L10.3429844,66.2142857 C10.3429844,69.4125 12.9247216,72 16.1158129,72 L17.077951,72 C17.2062361,72 17.3345212,71.9919643 17.4628062,71.9919643 C17.5991091,72 17.7434298,72 17.8797327,72 L58.4498886,72 L66.1469933,72 C69.3380846,72 71.9198218,69.4125 71.9198218,66.2142857 L71.9198218,62.3571429 C71.9198218,60.9348214 70.7732739,59.7857143 69.3541203,59.7857143 Z M68.7126949,65.5633929 C68.7126949,67.3473214 67.2775056,68.7857143 65.5055679,68.7857143 L58.4498886,68.7857143 L22.8187082,68.7857143 C23.4521158,67.7571429 23.8129176,66.54375 23.8129176,65.25 L23.8129176,63 L55.2427617,63 L60.0534521,63 L68.7126949,63 L68.7126949,65.5633929 Z" id="Shape" fill="#0D1A26" fill-rule="nonzero"></path>
                    <path d="M10.3429844,38.6517857 C11.4093541,39.4714286 12.4837416,40.2348214 13.5501114,40.95 C12.4837416,40.2348214 11.4093541,39.4714286 10.3429844,38.6517857 Z" id="Shape" fill="#0D1A26" fill-rule="nonzero"></path>
                    <path d="M55.2427617,63 L55.2427617,65.5633929 C55.2427617,67.33125 56.677951,68.7696429 58.4498886,68.7696429 L65.5055679,68.7696429 C67.2775056,68.7696429 68.7126949,67.33125 68.7126949,65.5633929 L68.7126949,63 L60.0534521,63 L55.2427617,63 Z" id="Shape" fill="#FFFFFF" fill-rule="nonzero"></path>
                    <path d="M35.4547884,16.0794643 C30.8525612,16.1517857 26.2503341,17.1 21.6481069,18.9241071 C26.2423163,17.1 30.8685969,16.1517857 35.4547884,16.0794643 Z" id="Shape" fill="#FFFFFF" fill-rule="nonzero"></path>
                    <path d="M21.6481069,18.9241071 C20.9826281,19.1892857 20.325167,19.4705357 19.6596882,19.7678571 C20.325167,19.4705357 20.9826281,19.1892857 21.6481069,18.9241071 Z" id="Shape" fill="#FFFFFF" fill-rule="nonzero"></path>
                    <path d="M17.2703786,46.8964286 C12.8365256,44.5982143 8.3545657,41.4482143 3.90467706,37.5107143 C6.05345212,39.4151786 8.19420935,41.1267857 10.3429844,42.6455357 C11.4093541,43.4008929 12.4837416,44.1160714 13.5501114,44.7830357 C14.7928731,45.5544643 16.0276169,46.2535714 17.2703786,46.8964286 Z" id="Shape" fill="#FFFFFF" fill-rule="nonzero"></path>
                    <path d="M54.3287305,20.7160714 C55.6997773,21.4151786 57.0708241,22.1866071 58.4498886,23.0464286 C59.5162584,23.7133929 60.5906459,24.4205357 61.6570156,25.1839286 C64.2547884,27.0321429 66.8605791,29.1535714 69.4503341,31.5482143 C66.8525612,29.1455357 64.2547884,27.0241071 61.6570156,25.1758929 C60.5906459,24.4205357 59.5162584,23.7053571 58.4498886,23.0383929 C57.0788419,22.1866071 55.7077951,21.4151786 54.3287305,20.7160714 Z" id="Shape" fill="#FFFFFF" fill-rule="nonzero"></path>
                    <path d="M49.2935412,45.8598214 C50.2155902,45.4901786 51.1296214,45.0883929 52.0516704,44.6464286 C54.1683742,43.6258929 56.3091314,42.3883929 58.4498886,40.95 C59.5162584,40.2348214 60.5906459,39.4714286 61.6570156,38.6517857 C63.5331849,37.2214286 65.4093541,35.6383929 67.2855234,33.9107143 C62.1942094,29.2098214 57.0788419,25.6017857 52.0516704,23.175 C51.1296214,22.7330357 50.2155902,22.33125 49.2935412,21.9616071 C52.1478842,25.1196429 53.8797327,29.3142857 53.8797327,33.9107143 C53.8797327,38.5071429 52.1478842,42.7017857 49.2935412,45.8598214 Z" id="Shape" fill="#FFFFFF" fill-rule="nonzero"></path>
                    <path d="M50.3518931,18.9241071 C45.7496659,17.1 41.1474388,16.1517857 36.5452116,16.0794643 C41.1314031,16.1517857 45.7576837,17.1 50.3518931,18.9241071 Z" id="Shape" fill="#FFFFFF" fill-rule="nonzero"></path>
                    <path d="M52.3403118,19.7678571 C51.6828508,19.4705357 51.0173719,19.1892857 50.3518931,18.9241071 C51.0173719,19.1892857 51.674833,19.4705357 52.3403118,19.7678571 Z" id="Shape" fill="#FFFFFF" fill-rule="nonzero"></path>
                    <path d="M13.5501114,40.95 C15.6908686,42.3883929 17.8316258,43.6178571 19.9483296,44.6383929 C20.942539,45.1125 21.9287305,45.5544643 22.9229399,45.9321429 C20.0365256,42.7660714 18.2806236,38.5392857 18.2806236,33.91875 C18.2806236,33.9107143 18.2806236,33.9107143 18.2806236,33.9026786 C18.2806236,33.8946429 18.2806236,33.8946429 18.2806236,33.8946429 C18.2806236,29.2580357 20.0445434,25.0392857 22.9469933,21.8732143 C21.9447661,22.2589286 20.9505568,22.7008929 19.9483296,23.175 C14.9211581,25.59375 9.80579065,29.2017857 4.72249443,33.9026786 C6.5986637,35.6383929 8.47483296,37.2214286 10.3429844,38.6517857 C11.4093541,39.4714286 12.4837416,40.2348214 13.5501114,40.95 Z" id="Shape" fill="#FFFFFF" fill-rule="nonzero"></path>
                    <path d="M24.9193764,50.0464286 C27.8458797,50.9383929 30.7643653,51.4848214 33.6908686,51.6696429 C30.7723831,51.4848214 27.8458797,50.9383929 24.9193764,50.0464286 Z" id="Shape" fill="#FFFFFF" fill-rule="nonzero"></path>
                    <path d="M17.6792873,20.7160714 C16.3002227,21.4071429 14.9291759,22.1866071 13.5501114,23.0383929 C12.4837416,23.7053571 11.4093541,24.4125 10.3429844,25.1758929 C7.74521158,27.0241071 5.13942094,29.1455357 2.54164811,31.55625 C5.13140312,29.1616071 7.73719376,27.0321429 10.3429844,25.1839286 C11.4093541,24.4285714 12.4837416,23.7133929 13.5501114,23.0464286 C14.9291759,22.1866071 16.3082405,21.4151786 17.6792873,20.7160714 Z" id="Shape" fill="#FFFFFF" fill-rule="nonzero"></path>
                    <path d="M17.7594655,47.1455357 C17.8476615,47.19375 17.9358575,47.2339286 18.0240535,47.2821429 C18.088196,47.3142857 18.1523385,47.3464286 18.2164811,47.3705357 C18.3287305,47.4267857 18.44098,47.4830357 18.5612472,47.5392857 C18.569265,47.5392857 18.5772829,47.5473214 18.5772829,47.5473214 C18.6734967,47.5955357 18.7697105,47.6357143 18.8659243,47.6839286 C18.9541203,47.7241071 19.0342984,47.7642857 19.1224944,47.8044643 C19.2668151,47.86875 19.4111359,47.9410714 19.5554566,48.0053571 C19.5875278,48.0214286 19.6195991,48.0375 19.6516704,48.0535714 C21.3995546,48.8410714 23.1634744,49.5080357 24.9193764,50.0464286 C27.8458797,50.9383929 30.7723831,51.4848214 33.6908686,51.6696429 C34.2761693,51.7098214 34.8614699,51.7339286 35.4547884,51.7419643 C35.6391982,51.7419643 35.8155902,51.75 36,51.75 C36.0160356,51.75 36.0320713,51.75 36.0481069,51.75 C36.0561247,51.75 36.0721604,51.75 36.0801782,51.75 C36.1202673,51.75 36.1603563,51.75 36.2004454,51.75 C36.3126949,51.75 36.4329621,51.75 36.5452116,51.75 C41.7888641,51.6696429 47.0966592,50.4321429 52.3403118,48.0616071 C52.3723831,48.0455357 52.4044543,48.0294643 52.4445434,48.0133929 C52.5888641,47.9491071 52.7331849,47.8848214 52.8775056,47.8125 C52.9657016,47.7723214 53.0458797,47.7321429 53.1340757,47.6919643 C53.2302895,47.64375 53.3265033,47.6035714 53.4227171,47.5553571 C53.430735,47.5553571 53.4387528,47.5473214 53.4387528,47.5473214 C53.5510022,47.4910714 53.6712695,47.4348214 53.7835189,47.3785714 C53.8476615,47.3464286 53.911804,47.3142857 53.9679287,47.2901786 C54.0641425,47.2419643 54.1523385,47.19375 54.2485523,47.1535714 C54.4089087,47.0732143 54.5772829,46.9848214 54.7376392,46.9044643 C55.9723831,46.2616071 57.2151448,45.5544643 58.4579065,44.7830357 C58.9870824,44.4535714 59.5082405,44.1160714 60.0374165,43.7625 C60.0534521,43.7544643 60.0694878,43.7383929 60.0855234,43.7303571 C60.1817372,43.6660714 60.277951,43.6017857 60.3741648,43.5375 C60.4463252,43.4892857 60.5265033,43.4330357 60.5986637,43.3848214 C60.6628062,43.3446429 60.718931,43.3044643 60.7830735,43.2642857 C60.8552339,43.2160714 60.9273942,43.1678571 60.9995546,43.1196429 C61.2240535,42.9669643 61.4405345,42.8142857 61.6650334,42.6535714 C64.2708241,40.8053571 66.8766147,38.6758929 69.4743875,36.2732143 C69.6347439,36.1205357 69.803118,35.9678571 69.9634744,35.8151786 C70.0436526,35.7348214 70.1318486,35.6625 70.2120267,35.5821429 C70.2922049,35.5098214 70.3643653,35.4375 70.4445434,35.3651786 C70.5407572,35.2767857 70.636971,35.1803571 70.7331849,35.0919643 L71.9438753,33.9348214 L70.7412027,32.7616071 C70.636971,32.6651786 70.5327394,32.5607143 70.4285078,32.4642857 C70.3563474,32.4 70.2922049,32.3357143 70.2200445,32.2714286 C70.1318486,32.1830357 70.0356347,32.1026786 69.9474388,32.0142857 C69.7870824,31.8616071 69.6187082,31.7089286 69.4583519,31.55625 C66.8685969,29.1616071 64.2628062,27.0401786 61.6650334,25.1919643 C60.5986637,24.4366071 59.5242762,23.7214286 58.4579065,23.0544643 C57.0788419,22.2026786 55.7077951,21.4232143 54.3367483,20.7241071 C54.2164811,20.6598214 54.0962138,20.6035714 53.9759465,20.5392857 C53.9278396,20.5151786 53.8877506,20.4910714 53.8396437,20.475 C53.7113586,20.4107143 53.5750557,20.3464286 53.4467706,20.2821429 C53.4387528,20.2821429 53.430735,20.2741071 53.4227171,20.2741071 C53.342539,20.2339286 53.254343,20.19375 53.1741648,20.1535714 C53.077951,20.1053571 52.9817372,20.0571429 52.8855234,20.0169643 C52.7492205,19.9526786 52.6129176,19.8883929 52.4766147,19.8321429 C52.4365256,19.8160714 52.3884187,19.7919643 52.3483296,19.7758929 C47.0966592,17.4053571 41.796882,16.1678571 36.5532294,16.0875 C36.44098,16.0875 36.3207127,16.0875 36.2084633,16.0875 C36.1683742,16.0875 36.1282851,16.0875 36.088196,16.0875 C36.0801782,16.0875 36.0641425,16.0875 36.0561247,16.0875 C36.0400891,16.0875 36.0240535,16.0875 36.0080178,16.0875 C35.823608,16.0875 35.647216,16.0875 35.4628062,16.0955357 C30.2191537,16.1758929 24.9193764,17.4133929 19.667706,19.7839286 C19.6276169,19.8 19.57951,19.8241071 19.5394209,19.8401786 C19.403118,19.9044643 19.2668151,19.9607143 19.1305122,20.025 C19.0342984,20.0732143 18.9380846,20.1133929 18.8418708,20.1616071 C18.7616927,20.2017857 18.6734967,20.2419643 18.5933185,20.2821429 C18.5853007,20.2821429 18.5772829,20.2901786 18.569265,20.2901786 C18.44098,20.3544643 18.3126949,20.41875 18.176392,20.4830357 C18.1282851,20.5071429 18.0801782,20.53125 18.0400891,20.5473214 C17.9198218,20.6035714 17.8075724,20.6678571 17.6873051,20.7241071 C16.3162584,21.4232143 14.9371938,22.1946429 13.5581292,23.0544643 C12.4917595,23.7214286 11.4173719,24.4285714 10.3510022,25.1919643 C7.74521158,27.0401786 5.13942094,29.1696429 2.54966592,31.5642857 C2.38930958,31.7169643 2.22093541,31.8696429 2.06057906,32.0223214 C1.97238307,32.1026786 1.88418708,32.1910714 1.78797327,32.2714286 C1.71581292,32.3357143 1.65167038,32.4 1.57951002,32.4723214 C1.4752784,32.56875 1.37104677,32.6651786 1.26681514,32.7696429 L0.064142539,33.9107143 L1.27483296,35.0678571 C1.37104677,35.15625 1.46726058,35.2526786 1.56347439,35.3410714 C1.64365256,35.4133929 1.71581292,35.49375 1.79599109,35.5660714 C1.87616927,35.6383929 1.95634744,35.71875 2.03652561,35.7910714 C2.19688196,35.94375 2.36525612,36.0964286 2.52561247,36.2491071 C2.68596882,36.39375 2.83830735,36.5383929 2.9986637,36.6830357 C3.08685969,36.7633929 3.17505568,36.84375 3.26325167,36.9241071 C3.32739421,36.9883929 3.39955457,37.0446429 3.4636971,37.1089286 C3.59198218,37.2214286 3.71224944,37.3339286 3.84053452,37.4464286 C3.86458797,37.4705357 3.89665924,37.4946429 3.92071269,37.51875 C8.36258352,41.45625 12.8445434,44.60625 17.2864143,46.9044643 C17.430735,46.9848214 17.5991091,47.0651786 17.7594655,47.1455357 Z M52.0516704,23.175 C57.0788419,25.6017857 62.1942094,29.2098214 67.2855234,33.9107143 C65.4093541,35.6464286 63.5331849,37.2294643 61.6570156,38.6598214 C60.5906459,39.4794643 59.5162584,40.2428571 58.4498886,40.9580357 C56.3091314,42.3964286 54.1683742,43.6258929 52.0516704,44.6464286 C51.1376392,45.0883929 50.2155902,45.4901786 49.2935412,45.8598214 C52.1478842,42.7017857 53.8797327,38.5071429 53.8797327,33.9107143 C53.8797327,29.3142857 52.1478842,25.1196429 49.2935412,21.9616071 C50.2155902,22.33125 51.1296214,22.7330357 52.0516704,23.175 Z M36,19.2857143 C44.0579065,19.2857143 50.5924276,25.8348214 50.5924276,33.9107143 C50.5924276,41.9866071 44.0579065,48.5357143 36,48.5357143 C27.9420935,48.5357143 21.4075724,41.9866071 21.4075724,33.9107143 C21.4075724,25.8348214 27.9420935,19.2857143 36,19.2857143 Z M10.3429844,38.6517857 C8.46681514,37.2214286 6.59064588,35.6383929 4.71447661,33.9107143 C4.71447661,33.9107143 4.71447661,33.9107143 4.72249443,33.9026786 C9.81380846,29.19375 14.9291759,25.5857143 19.9483296,23.175 C20.9505568,22.6928571 21.9447661,22.2508929 22.9469933,21.8732143 C22.9469933,21.8732143 22.9550111,21.8732143 22.9550111,21.8651786 C20.0525612,25.0392857 18.2806236,29.2660714 18.2806236,33.9026786 C18.2806236,33.9107143 18.2806236,33.9107143 18.2806236,33.91875 C18.2806236,38.5473214 20.0365256,42.7660714 22.9229399,45.9321429 C22.9309577,45.9482143 22.9469933,45.95625 22.9550111,45.9723214 C21.952784,45.5705357 20.9505568,45.1285714 19.9483296,44.6464286 C17.8316258,43.6258929 15.6908686,42.3883929 13.5501114,40.95 C12.4837416,40.2348214 11.4093541,39.4714286 10.3429844,38.6517857 Z" id="Shape" fill="#0D1A26" fill-rule="nonzero"></path>
                    <path d="M30.9567929,33.9107143 C31.5420935,33.9107143 32.0151448,33.4366071 32.0311804,32.8580357 L32.0391982,32.8580357 C32.0391982,31.2669643 33.3621381,29.9651786 34.9496659,29.9410714 C35.5269488,29.9330357 36,29.4428571 36,28.8642857 C36,28.2776786 35.5269488,27.7955357 34.9496659,27.7875 C34.9416481,27.7875 34.9416481,27.7875 34.9336303,27.7875 L34.9256125,27.7875 C34.9175947,27.7875 34.9175947,27.7875 34.9175947,27.7875 C32.1434298,27.8035714 29.9064588,30.0696429 29.8824053,32.8258929 C29.8824053,32.8339286 29.8824053,32.8339286 29.8824053,32.8339286 L29.8824053,32.8419643 C29.8824053,32.85 29.8824053,32.8580357 29.8824053,32.8660714 C29.898441,33.4366071 30.3714922,33.9107143 30.9567929,33.9107143 Z" id="Shape" fill="#FFFFFF" fill-rule="nonzero"></path>
                    <path d="M36,48.5357143 C44.0579065,48.5357143 50.5924276,41.9866071 50.5924276,33.9107143 C50.5924276,25.8348214 44.0579065,19.2857143 36,19.2857143 C27.9420935,19.2857143 21.4075724,25.8348214 21.4075724,33.9107143 C21.4075724,41.9866071 27.9420935,48.5357143 36,48.5357143 Z M36,23.9464286 C41.4841871,23.9464286 45.9420935,28.4142857 45.9420935,33.9107143 C45.9420935,39.4071429 41.4841871,43.875 36,43.875 C30.5158129,43.875 26.0579065,39.4071429 26.0579065,33.9107143 C26.0579065,28.4142857 30.5158129,23.9464286 36,23.9464286 Z" id="Shape" fill="#FFFFFF" fill-rule="nonzero"></path>
                    <path d="M36,43.875 C41.4841871,43.875 45.9420935,39.4071429 45.9420935,33.9107143 C45.9420935,28.4142857 41.4841871,23.9464286 36,23.9464286 C30.5158129,23.9464286 26.0579065,28.4142857 26.0579065,33.9107143 C26.0579065,39.4071429 30.5158129,43.875 36,43.875 Z M29.8824053,32.8339286 C29.8824053,32.8258929 29.8824053,32.8258929 29.8824053,32.8178571 C29.9064588,30.0616071 32.1434298,27.7955357 34.9175947,27.7794643 C34.9256125,27.7794643 34.9256125,27.7794643 34.9256125,27.7794643 L34.9336303,27.7794643 C34.9416481,27.7794643 34.9416481,27.7794643 34.9496659,27.7794643 C35.5269488,27.7875 36,28.2696429 36,28.85625 C36,29.4428571 35.5269488,29.925 34.9496659,29.9330357 C33.3621381,29.9651786 32.0391982,31.2589286 32.0391982,32.85 L32.0311804,32.85 C32.0151448,33.4285714 31.5420935,33.9026786 30.9567929,33.9026786 C30.3714922,33.9026786 29.898441,33.4285714 29.8824053,32.85 C29.8824053,32.85 29.8824053,32.8419643 29.8824053,32.8339286 Z" id="Shape" fill="#1890FF" fill-rule="nonzero"></path>
                </g>
            </g>
        </g>
    </g>
</svg>