<?xml version="1.0" encoding="UTF-8"?>
<svg width="327px" height="462px" viewBox="0 0 327 462" version="1.1" xmlns="http://www.w3.org/2000/svg" xmlns:xlink="http://www.w3.org/1999/xlink">
    <!-- Generator: Sketch 48.2 (47327) - http://www.bohemiancoding.com/sketch -->
    <title>xcjzhFcbJuaDBAXSTadA</title>
    <desc>Created with Sketch.</desc>
    <defs></defs>
    <g id="Page-1" stroke="none" stroke-width="1" fill="none" fill-rule="evenodd">
        <g id="xcjzhFcbJuaDBAXSTadA">
            <rect id="Rectangle-9" fill="#FFFFFF" fill-rule="nonzero" x="0" y="0" width="327" height="462"></rect>
            <g id="Group-54" transform="translate(42.000000, 151.000000)">
                <path d="M220.447791,165.135316 C220.447791,167.188511 212.355935,168.85403 202.37326,168.85403 C192.390586,168.85403 184.297945,167.188511 184.297945,165.135316 C184.297945,163.081334 192.390586,161.416602 202.37326,161.416602 C212.355935,161.416602 220.447791,163.081334 220.447791,165.135316" id="Fill-258" fill="#FFFFFF" fill-rule="nonzero"></path>
                <path d="M220.447791,165.135316 C220.447791,167.188511 212.355935,168.85403 202.37326,168.85403 C192.390586,168.85403 184.297945,167.188511 184.297945,165.135316 C184.297945,163.081334 192.390586,161.416602 202.37326,161.416602 C212.355935,161.416602 220.447791,163.081334 220.447791,165.135316 Z" id="Stroke-260" stroke="#2150B7" stroke-width="1.175625" stroke-linecap="round" stroke-linejoin="round"></path>
                <path d="M184.585764,140.184784 L192.592137,147.718148 C192.592137,147.718148 198.166562,147.376866 198.17911,148.758507 C198.231654,154.530416 191.17814,167.005289 190.128818,164.18303 C189.079497,161.359984 189.498284,152.658084 189.498284,152.658084 L179.592466,146.73598 C179.592466,146.73598 180.323384,142.41727 184.585764,140.184784" id="Fill-262" fill="#2F74EB" fill-rule="nonzero"></path>
                <path d="M184.585764,140.184784 L192.592137,147.718148 C192.592137,147.718148 198.166562,147.376866 198.17911,148.758507 C198.231654,154.530416 191.17814,167.005289 190.128818,164.18303 C189.079497,161.359984 189.498284,152.658084 189.498284,152.658084 L179.592466,146.73598 C179.592466,146.73598 180.323384,142.41727 184.585764,140.184784 Z" id="Stroke-264" stroke="#2150B7" stroke-width="1.175625" stroke-linecap="round" stroke-linejoin="round"></path>
                <path d="M197.689752,129.835452 C197.689752,129.835452 215.11179,131.222598 216.711653,126.809525 C218.772653,121.125689 213.632701,118.952966 213.632701,118.952966 L193.664214,119.21168 C193.664214,119.21168 187.94941,123.100248 189.175971,126.809525 C190.400964,130.520375 197.689752,129.835452 197.689752,129.835452" id="Fill-270" fill="#FFFFFF" fill-rule="nonzero"></path>
                <path d="M197.689752,129.835452 C197.689752,129.835452 214.331464,131.09442 216.24581,126.809525 C219.148307,120.314948 213.632701,118.952966 213.632701,118.952966 L193.664214,119.21168 C193.664214,119.21168 187.94941,123.100248 189.175971,126.809525 C190.400964,130.520375 197.689752,129.835452 197.689752,129.835452 Z" id="Stroke-272" stroke="#2150B7" stroke-width="1.175625" stroke-linecap="round" stroke-linejoin="round"></path>
                <path d="M181.945205,22.1059932 C181.945205,22.1059932 197.50636,19.4905477 203.168669,13.1815523 C208.325134,7.43716589 208.232037,0.998420435 208.232037,0.998420435" id="Stroke-274" stroke="#2150B7" stroke-width="3.135" stroke-linecap="round" stroke-linejoin="round"></path>
                <path d="M198.166562,4.14387498 C198.166562,4.14387498 201.592151,17.3657932 193.708904,26.037025" id="Stroke-276" stroke="#2150B7" stroke-width="3.135" stroke-linecap="round" stroke-linejoin="round"></path>
                <path d="M191.164024,10.4347841 C191.164024,10.4347841 192.615664,15.2237386 190.571918,19.739825" id="Stroke-278" stroke="#2150B7" stroke-width="3.135" stroke-linecap="round" stroke-linejoin="round"></path>
                <g id="Group-283" transform="translate(91.756849, 107.943875)">
                    <polyline id="Fill-280" fill="#FFFFFF" fill-rule="nonzero" points="10.4962777 0.355436364 0.332442123 60.8936409 3.22788048 60.8936409 16.171086 0.355436364"></polyline>
                    <polyline id="Stroke-282" stroke="#2150B7" stroke-width="1.175625" stroke-linecap="round" stroke-linejoin="round" points="10.4962777 0.355436364 0.332442123 60.8936409 3.22788048 60.8936409 16.171086 0.355436364"></polyline>
                </g>
                <g id="Group-287" transform="translate(112.931507, 107.943875)">
                    <polyline id="Fill-284" fill="#FFFFFF" fill-rule="nonzero" points="10.2236736 1.18945364 0.00415650685 61.1402445 3.75285514 61.1402445 16.5274476 0.704267273"></polyline>
                    <polyline id="Stroke-286" stroke="#2150B7" stroke-width="1.175625" stroke-linecap="round" stroke-linejoin="round" points="10.2236736 1.18945364 0.00415650685 61.1402445 3.75285514 61.1402445 16.5274476 0.704267273"></polyline>
                </g>
                <polygon id="Fill-288" fill="#FFFFFF" fill-rule="nonzero" points="160.340781 107.310852 170.552455 168.578016 167.199017 168.578016 154.496575 107.157511"></polygon>
                <polygon id="Stroke-290" stroke="#2150B7" stroke-width="1.175625" stroke-linecap="round" stroke-linejoin="round" points="160.340781 107.310852 170.552455 168.578016 167.199017 168.578016 154.496575 107.157511"></polygon>
                <polygon id="Fill-292" fill="#FFFFFF" fill-rule="nonzero" points="141.518863 107.310852 150.729839 168.578016 147.376401 168.578016 135.674658 107.157511"></polygon>
                <polygon id="Stroke-294" stroke="#2150B7" stroke-width="1.175625" stroke-linecap="round" stroke-linejoin="round" points="141.518863 107.310852 150.729839 168.578016 147.376401 168.578016 135.674658 107.157511"></polygon>
                <path d="M179.778907,133.953639 L177.962592,130.95602 L184.140102,126.984884 C184.140102,126.984884 180.072999,133.158625 179.409526,135.965157 C178.020626,141.84637 169.737413,154.774975 169.737413,154.774975 L175.203612,160.165498 C175.203612,160.165498 180.74902,155.59358 184.762009,150.930443 C188.774215,146.26652 191.081468,138.711139 191.081468,138.711139 C191.081468,138.711139 201.943283,126.309398 208.261174,121.477193 C218.335605,115.508693 213.473276,107.008102 213.473276,107.008102 L183.673475,106.371148 L183.156657,110.975307 L182.677482,111.611475 C182.677482,111.611475 165.129965,120.312589 164.035941,127.81607 C162.446273,134.51353 176.141571,142.684634 176.141571,142.684634" id="Fill-296" fill="#D7F0FF" fill-rule="nonzero"></path>
                <path d="M217.904161,90.0375128 C217.904161,90.0375128 209.925237,91.7329128 204.631572,94.0676264 C200.086864,96.0720673 200.398994,102.002822 203.805761,104.087472 C207.213312,106.172122 220.188672,106.996231 224.771809,101.333626 C233.470672,91.6849446 219.662442,64.7983855 219.662442,64.7983855 C219.662442,64.7983855 216.114511,61.8078446 203.294432,60.1918673 C190.474353,58.5766764 178.365586,66.5425401 178.365586,66.5425401 C178.365586,66.5425401 170.806233,72.3057992 165.314155,91.0873083 C161.397627,104.479867 177.246466,103.33964 177.246466,103.33964 C177.246466,103.33964 182.2131,111.509172 191.74248,111.290563 C203.314038,111.025558 209.497822,109.003817 213.648055,105.729399" id="Fill-298" fill="#FFFFFF" fill-rule="nonzero"></path>
                <path d="M223.447043,70.8130073 C223.447043,70.8130073 227.953324,63.0594618 223.912886,60.1672164 C219.872447,57.2749709 221.443293,57.5360437 220.45279,54.3835118 C218.449824,49.4506528 212.516214,48.4063618 212.516214,48.4063618 C212.516214,48.4063618 205.460348,47.8975846 199.61379,48.4063618 C193.767231,48.9151391 183.466153,53.2424982 183.466153,53.2424982 C183.466153,53.2424982 170.766064,62.6261755 181.641995,67.4049073 C187.000752,72.2237437 190.488297,77.3689209 190.488297,77.3689209 C190.488297,77.3689209 212.431516,60.6390346 220.448084,65.0670482 L223.447043,70.8130073 Z" id="Fill-300" fill="#FFFFFF" fill-rule="nonzero"></path>
                <path d="M198.208872,32.4710523 C215.452102,36.5255432 210.763092,19.0847841 210.763092,19.0847841 C210.763092,19.0847841 209.408698,20.1526659 162.244893,38.0267113 C156.963776,49.8489023 183.726975,50.2098432 183.726975,50.2098432 L182.870578,61.9714841 L190.482475,72.1596113 C190.482475,72.1596113 207.228492,57.1007477 213.831064,54.5788795 L206.658345,32.7187568" id="Fill-302" fill="#D7F0FF" fill-rule="nonzero"></path>
                <path d="M82.4203938,165.135316 C82.4203938,167.189298 74.3285377,168.85403 64.3450788,168.85403 C54.3631884,168.85403 46.2705479,167.189298 46.2705479,165.135316 C46.2705479,163.081334 54.3631884,161.416602 64.3450788,161.416602 C74.3285377,161.416602 82.4203938,163.081334 82.4203938,165.135316" id="Fill-304" fill="#FFFFFF" fill-rule="nonzero"></path>
                <path d="M83.2054247,165.135316 C83.2054247,167.188511 75.1127842,168.85403 65.1301096,168.85403 C55.1482192,168.85403 47.0547945,167.188511 47.0547945,165.135316 C47.0547945,163.081334 55.1482192,161.416602 65.1301096,161.416602 C75.1127842,161.416602 83.2054247,163.081334 83.2054247,165.135316 Z" id="Stroke-306" stroke="#2150B7" stroke-width="1.175625" stroke-linecap="round" stroke-linejoin="round"></path>
                <path d="M68.4592363,125.243875 L68.4592363,163.613702 C68.4592363,163.613702 66.7707534,164.55498 65.0179623,164.55498 C63.2651712,164.55498 61.9554795,163.613702 61.9554795,163.613702 L61.9554795,125.729061 L68.4592363,125.243875 Z" id="Fill-308" fill="#FFFFFF" fill-rule="nonzero"></path>
                <path d="M56.1196172,123.558508 C56.1196172,123.558508 64.7431926,125.684835 75.6112816,123.037149 C75.6112816,123.037149 77.8989289,122.305044 75.6112816,117.475199 C73.3236343,112.644567 56.0741309,114.51454 55.4530076,114.982426 C54.8311001,115.44874 52.4360111,122.164285 56.1196172,123.558508" id="Fill-310" fill="#FFFFFF" fill-rule="nonzero"></path>
                <path d="M83.6359297,107.155939 C83.6359297,107.155939 94.9831934,121.428439 93.8648578,127.829439 C92.7465222,134.231225 84.3448886,141.79683 84.3448886,141.79683 L77.739964,135.650611 L81.3702414,129.049089 C81.3702414,129.049089 82.3748612,127.934025 70.6527277,118.594384 C66.8381523,120.498957 59.4144742,118.864107 59.4144742,118.864107 L49.620803,129.616843 L52.667601,134.603961 L46.1050256,141.98477 C46.1050256,141.98477 35.2957551,136.21758 34.5428783,130.462184 C33.7907859,124.706002 45.0627619,109.734425 45.0627619,109.734425 L44.9074811,65.4802386 L75.3205633,65.4802386 L83.6359297,107.155939 Z" id="Fill-312" fill="#FFFFFF" fill-rule="nonzero"></path>
                <path d="M83.6359297,107.155939 C83.6359297,107.155939 94.9831934,121.428439 93.8648578,127.829439 C92.7465222,134.231225 84.3448886,141.79683 84.3448886,141.79683 L77.739964,135.650611 L81.3702414,129.049089 C81.3702414,129.049089 82.3748612,127.934025 70.6527277,118.594384 C66.8381523,120.498957 59.4144742,118.864107 59.4144742,118.864107 L49.620803,129.616843 L53.1334434,135.071848 L46.1050256,141.98477 C46.1050256,141.98477 35.2957551,136.21758 34.5428783,130.462184 C33.7907859,124.706002 45.0627619,109.734425 45.0627619,109.734425 L44.9074811,65.4802386 L75.3205633,65.4802386 L83.6359297,107.155939 Z" id="Stroke-314" stroke="#2150B7" stroke-width="1.175625" stroke-linecap="round" stroke-linejoin="round"></path>
                <path d="M44.0774125,92.4061159 C44.0774125,92.4061159 34.9103543,98.1646568 28.5446248,98.1646568 C20.3853235,98.1646568 13.745892,90.038375 12.2197481,85.5977795 C10.69282,81.1563977 13.2996557,79.4523477 15.6202413,77.2992841 C19.9986899,73.2345704 25.3088235,81.422975 26.3699091,82.1157613 C28.3587584,83.4156204 29.7084468,81.8169432 32.1513748,77.6610113 C35.9439913,71.2096841 38.2136009,70.9847841 38.2136009,70.9847841 C38.2136009,70.9847841 47.5328029,71.5690523 51.4030598,72.5575113 C55.2725324,73.5467568 54.8066899,76.1952295 54.8066899,79.3115886 C54.8066899,82.4279477 54.9776557,109.813061 54.9776557,109.813061 C54.9776557,109.813061 47.9696283,111.252893 41.7466317,107.788961 C38.3767242,105.91427 39.7021009,95.3479023 39.7021009,95.3479023" id="Fill-316" fill="#FFFFFF" fill-rule="nonzero"></path>
                <path d="M85.0662538,89.9459954 C86.6041613,90.8471681 93.0522366,93.9084818 97.0746373,92.7234318 C110.748761,89.0298818 106.709106,76.89865 101.512689,77.9217091 C98.5615688,79.4739909 94.4991716,79.71855 88.6565346,74.94375 C85.1078188,72.0420681 81.8139832,70.8515136 81.8139832,70.8515136 C81.8139832,70.8515136 78.1782161,69.0774772 74.3950106,69.4683 C68.5045346,70.0761591 69.956175,77.2776772 69.956175,77.2776772 C70.8125722,85.5557272 72.4163565,108.949259 72.4163565,108.949259 C72.4163565,108.949259 76.9783188,110.323823 82.6586168,107.910473 C88.3389147,105.497123 83.5832435,79.7154045 83.5832435,79.7154045" id="Fill-318" fill="#FFFFFF" fill-rule="nonzero"></path>
                <path d="M41.7469385,93.8074159 C41.7469385,93.8074159 34.9098769,98.1638704 28.5449317,98.1638704 C20.3856303,98.1638704 13.7461988,90.038375 12.2200549,85.5977795 C10.6923426,81.1563977 13.2999625,79.4523477 15.6205481,77.2984977 C19.9989967,73.2345704 25.3091303,81.4221886 26.3702159,82.1157613 C28.3590652,83.4156204 29.7079693,81.8169432 32.1516817,77.6610113 C35.9442981,71.2096841 38.2139077,70.9847841 38.2139077,70.9847841 C38.2139077,70.9847841 47.5331097,71.5682659 51.4033666,72.5575113 C55.2728392,73.5451841 55.2728392,76.1952295 55.2728392,79.3108023 C55.2728392,82.4271613 54.9779625,109.813061 54.9779625,109.813061 C54.9779625,109.813061 47.9699351,111.252893 41.7469385,107.788961 C38.377031,105.91427 39.7024077,95.3471159 39.7024077,95.3471159" id="Stroke-320" stroke="#2150B7" stroke-width="1.175625" stroke-linecap="round" stroke-linejoin="round"></path>
                <path d="M85.0662538,89.9458056 C86.6041613,90.8477647 90.5991133,92.8081692 97.0746373,92.723242 C110.515839,90.6952101 106.709106,76.8984601 101.512689,77.9215192 C98.5615688,79.4738011 94.4991716,79.7191465 88.6565346,74.9435601 C85.1078188,72.0418783 81.8139832,70.8513238 81.8139832,70.8513238 C81.8139832,70.8513238 78.1782161,69.0780738 74.3950106,69.4681101 C68.5045346,70.0759692 69.956175,77.2774874 69.956175,77.2774874 C70.8125722,85.5563238 71.9497298,108.481969 71.9497298,108.481969 C71.9497298,108.481969 76.9783188,109.855747 82.6586168,107.443183 C88.3389147,105.029833 83.5832435,79.7152147 83.5832435,79.7152147" id="Stroke-322" stroke="#2150B7" stroke-width="1.175625" stroke-linecap="round" stroke-linejoin="round"></path>
                <path d="M76.0719178,84.0337023 L79.4943699,83.5666023" id="Stroke-324" stroke="#2150B7" stroke-width="1.175625" stroke-linecap="round" stroke-linejoin="round"></path>
                <path d="M79.4418869,64.807463 C82.5890684,57.2583721 85.322952,45.2600358 84.3653869,42.3882358 C82.8933561,37.9720176 78.4066815,40.2965085 75.9786541,37.4066221 C72.3828835,32.1741585 59.2702808,25.7251903 46.8721267,34.1998312 C34.4724041,42.6744721 39.3904143,61.5039494 39.3904143,61.5039494 C39.3904143,61.5039494 48.2422054,66.200113 58.9644246,67.1744176 C69.6866438,68.1487221 79.4418869,64.807463 79.4418869,64.807463" id="Fill-326" fill="#D7F0FF" fill-rule="nonzero"></path>
                <path d="M55.6815068,66.051925 C55.6815068,66.051925 59.0961164,45.0544432 72.3859589,44.2987477 C82.7411507,43.7097613 84.2500411,42.6756932 84.2500411,42.6756932 C84.2500411,42.6756932 81.8329932,62.7806523 77.6521747,66.051925 C68.1902397,67.6104977 55.6815068,66.051925 55.6815068,66.051925" id="Fill-328" fill="#FFFFFF" fill-rule="nonzero"></path>
                <path d="M38.6061678,60.7175858 C38.6061678,60.7175858 33.6881575,41.8888949 46.0878801,33.4134676 C58.4876027,24.9388267 71.5986369,31.3877949 75.1944075,36.6202585 C77.6224349,39.5101449 82.1098938,37.1856539 83.5827088,41.6026585 C84.5387054,44.4736721 81.8048219,56.4735812 78.6576404,64.0210994" id="Stroke-330" stroke="#2150B7" stroke-width="1.175625" stroke-linecap="round" stroke-linejoin="round"></path>
                <path d="M79.1954606,50.9152113 C79.1954606,50.9152113 74.3103887,60.8241795 68.1948339,57.2572341 C63.4603373,54.4963113 67.4443099,47.393875 67.4443099,47.393875 C66.3761661,47.6683159 71.6180702,52.2394477 79.1954606,50.9152113" id="Fill-332" fill="#BBE2FF" fill-rule="nonzero"></path>
                <path d="M82.7293412,43.3462741 C74.4673035,43.7190105 78.7500741,39.1274332 78.7500741,39.1274332 C78.7500741,39.1274332 81.860396,37.9022787 82.7293412,39.8312287 C83.5982864,41.7601787 82.7293412,43.3462741 82.7293412,43.3462741" id="Fill-334" fill="#2150B7" fill-rule="nonzero"></path>
                <path d="M168.071884,41.0958886 C168.071884,43.2638932 166.613185,45.0214159 164.813339,45.0214159 C163.013493,45.0214159 161.554795,43.2638932 161.554795,41.0958886 C161.554795,38.9278841 163.013493,37.1711477 164.813339,37.1711477 C166.613185,37.1711477 168.071884,38.9278841 168.071884,41.0958886" id="Fill-336" fill="#2150B7" fill-rule="nonzero"></path>
                <path d="M82.1489332,49.6562432 C75.1330634,54.1220023 67.4443099,47.393875 67.4443099,47.393875 C67.4443099,47.393875 63.4603373,54.495525 68.1948339,57.2572341 C74.311173,60.8233932 79.1954606,50.9152113 79.1954606,50.9152113" id="Stroke-338" stroke="#2150B7" stroke-width="1.175625" stroke-linecap="round" stroke-linejoin="round"></path>
                <path d="M65.9480264,77.9879334 C65.9480264,77.9879334 69.3085229,102.578311 67.1298859,105.752074 C64.951249,108.925052 51.1367455,108.195306 51.7821805,103.136629 C52.4276154,98.0779516 53.7788722,76.5331607 53.7788722,76.5331607 C53.7788722,76.5331607 53.8071051,71.248797 59.8128654,72.8647743 C65.8178414,74.481538 65.9480264,77.9879334 65.9480264,77.9879334" id="Fill-340" fill="#D7F0FF" fill-rule="nonzero"></path>
                <path d="M38.2818774,60.7620568 C38.2818774,60.7620568 57.8535349,70.1284341 79.8445931,64.5751341 C82.8898226,64.4485295 79.9473294,67.6152159 81.4805315,68.4165204 C83.0145178,69.2186113 85.193939,73.2282795 74.7783602,76.0552568 C64.3635657,78.8838068 43.1457746,76.1055841 36.5784938,70.4736477 C33.6414904,67.7284523 36.6600554,66.4128659 36.5784938,64.8259841 C36.4977164,63.2383159 35.609165,61.1151341 38.2818774,60.7620568" id="Fill-342" fill="#D7F0FF" fill-rule="nonzero"></path>
                <path d="M38.2818774,60.7620568 C38.2818774,60.7620568 57.8535349,70.1284341 79.8445931,64.5751341 C82.8898226,64.4485295 79.9473294,67.6152159 81.4805315,68.4165204 C83.0145178,69.2186113 85.193939,73.2282795 74.7783602,76.0552568 C64.3635657,78.8838068 43.1457746,76.1055841 36.5784938,70.4736477 C33.6414904,67.7284523 36.6600554,66.4128659 36.5784938,64.8259841 C36.4977164,63.2383159 35.609165,61.1151341 38.2818774,60.7620568 Z" id="Stroke-344" stroke="#2150B7" stroke-width="1.175625" stroke-linecap="round" stroke-linejoin="round"></path>
                <path d="M54.2245113,77.2756932 C54.2245113,77.2756932 51.7392339,97.3499841 51.7604085,103.878375 C51.7784462,108.977943 64.929477,109.666798 67.1088982,106.493034 C69.2875352,103.31927 66.3936654,78.2617932 66.3936654,78.2617932" id="Stroke-346" stroke="#2150B7" stroke-width="1.175625" stroke-linecap="round" stroke-linejoin="round"></path>
                <path d="M16.7937883,77.5409579 C16.7937883,77.5409579 16.3044184,69.0152033 13.6748396,69.4264715 C11.0468294,69.8361669 11.7471616,73.4762442 11.7471616,73.4762442 C11.7471616,73.4762442 4.03644922,71.3444124 0.907305389,73.1011488 C-2.22262269,74.8570988 3.07417868,81.5860124 11.7471616,82.6955715 C11.7471616,82.6955715 17.6203842,82.7576942 16.7937883,77.5409579" id="Fill-348" fill="#FFFFFF" fill-rule="nonzero"></path>
                <path d="M16.7937883,77.5409579 C16.7937883,77.5409579 16.3044184,69.0152033 13.6748396,69.4264715 C11.0468294,69.8361669 11.7471616,73.4762442 11.7471616,73.4762442 C11.7471616,73.4762442 4.03644922,71.3444124 0.907305389,73.1011488 C-2.22262269,74.8570988 3.07417868,81.5860124 11.7471616,82.6955715 C11.7471616,82.6955715 17.6203842,82.7576942 16.7937883,77.5409579 Z" id="Stroke-350" stroke="#2150B7" stroke-width="1.175625" stroke-linecap="round" stroke-linejoin="round"></path>
                <path d="M43.9178082,140.037734 L53.9145993,148.56978 C53.9145993,148.56978 54.3004486,156.100784 56.3175308,156.696061 C58.3338288,157.291339 61.5876678,151.218252 61.3531781,148.695598 C61.1194726,146.172943 51.7210616,133.107511 51.7210616,133.107511 L43.9178082,140.037734 Z" id="Fill-352" fill="#2F74EB" fill-rule="nonzero"></path>
                <path d="M43.9178082,140.037734 L53.9145993,148.56978 C53.9145993,148.56978 54.3004486,156.100784 56.3175308,156.696061 C58.3338288,157.291339 61.5876678,151.218252 61.3531781,148.695598 C61.1194726,146.172943 51.7210616,133.107511 51.7210616,133.107511 L43.9178082,140.037734 Z" id="Stroke-354" stroke="#2150B7" stroke-width="1.175625" stroke-linecap="round" stroke-linejoin="round"></path>
                <path d="M78.4536919,133.893875 C78.4536919,133.893875 69.783846,146.78552 69.7979624,148.54383 C69.8112946,150.302925 72.8322124,157.992775 75.1849522,156.59698 C77.5376919,155.201184 76.8459864,148.67358 76.8459864,148.67358 L85.3056542,141.086743 L78.4536919,133.893875 Z" id="Fill-356" fill="#2F74EB" fill-rule="nonzero"></path>
                <path d="M78.4536919,133.893875 C78.4536919,133.893875 69.783846,146.78552 69.7979624,148.54383 C69.8112946,150.302925 72.8322124,157.992775 75.1849522,156.59698 C77.5376919,155.201184 76.8459864,148.67358 76.8459864,148.67358 L85.3056542,141.086743 L78.4536919,133.893875 Z" id="Stroke-358" stroke="#2150B7" stroke-width="1.175625" stroke-linecap="round" stroke-linejoin="round"></path>
                <path d="M55.6815068,123.406143 C55.6815068,123.406143 64.3050822,125.53247 75.1731712,122.884784" id="Stroke-360" stroke="#2150B7" stroke-width="1.175625" stroke-linecap="round" stroke-linejoin="round"></path>
                <path d="M61.9554795,125.729061 L61.9554795,163.613702 C61.9554795,163.613702 63.2651712,164.55498 65.0179623,164.55498 C66.7707534,164.55498 68.4592363,163.613702 68.4592363,163.613702 L68.4592363,125.243875" id="Stroke-362" stroke="#2150B7" stroke-width="1.175625" stroke-linecap="round" stroke-linejoin="round"></path>
                <path d="M70.8662095,32.8957413 C76.1700691,31.0297004 76.6123842,21.1042186 69.3173225,22.335664 C65.2306136,23.0253049 62.8629732,23.944564 57.1756171,23.8415504 C50.2271924,23.7165186 43.7140246,23.5301504 38.7011205,30.4454322 C33.6897849,37.360714 37.3922129,46.6429504 37.3922129,46.6429504 C37.3922129,46.6429504 37.4675006,46.6429504 43.8387198,39.652964 C46.6220109,29.2863322 70.8662095,32.8957413 70.8662095,32.8957413" id="Fill-364" fill="#2150B7" fill-rule="nonzero"></path>
                <path d="M70.8662095,32.8957413 C76.1700691,31.0297004 76.6123842,21.1042186 69.3173225,22.335664 C65.2306136,23.0253049 62.8629732,23.944564 57.1756171,23.8415504 C50.2271924,23.7165186 43.7140246,23.5301504 38.7011205,30.4454322 C33.6897849,37.360714 37.3922129,46.6429504 37.3922129,46.6429504 C37.3922129,46.6429504 37.4675006,46.6429504 43.8387198,39.652964 C46.6220109,29.2863322 70.8662095,32.8957413 70.8662095,32.8957413 Z" id="Stroke-366" stroke="#2150B7" stroke-width="1.175625" stroke-linecap="round" stroke-linejoin="round"></path>
                <path d="M106.331074,104.664739 L158.688159,104.664739 L166.052235,78.0620568 L130.441166,78.0620568 L124.276988,99.0296568 L106.331074,99.0296568 C104.801009,99.0296568 103.551704,100.25717 103.521118,101.791366 C103.489748,103.369598 104.756307,104.664739 106.331074,104.664739" id="Fill-368" fill="#FFFFFF" fill-rule="nonzero"></path>
                <path d="M106.331074,104.664739 L158.688159,104.664739 L166.052235,78.0620568 L130.441166,78.0620568 L124.276988,99.0296568 L106.331074,99.0296568 C104.801009,99.0296568 103.551704,100.25717 103.521118,101.791366 C103.489748,103.369598 104.756307,104.664739 106.331074,104.664739 Z" id="Stroke-370" stroke="#2150B7" stroke-width="1.175625" stroke-linecap="round" stroke-linejoin="round"></path>
                <path d="M92.2626884,103.225693 L177.577736,103.225693 C179.156425,103.225693 180.436315,104.350193 180.436315,105.735766 C180.436315,107.122911 179.156425,108.247411 177.577736,108.247411 L92.2626884,108.247411 C90.684,108.247411 89.4041096,107.122911 89.4041096,105.735766 C89.4041096,104.350193 90.684,103.225693 92.2626884,103.225693" id="Fill-372" fill="#FFFFFF" fill-rule="nonzero"></path>
                <path d="M92.2626884,103.225693 L177.577736,103.225693 C179.156425,103.225693 180.436315,104.350193 180.436315,105.735766 C180.436315,107.122911 179.156425,108.247411 177.577736,108.247411 L92.2626884,108.247411 C90.684,108.247411 89.4041096,107.122911 89.4041096,105.735766 C89.4041096,104.350193 90.684,103.225693 92.2626884,103.225693 Z" id="Stroke-374" stroke="#2150B7" stroke-width="1.175625"></path>
                <path d="M198.208872,32.4710523 C215.452102,36.5255432 210.763092,19.0847841 210.763092,19.0847841 C210.763092,19.0847841 209.408698,20.1526659 162.244893,38.0267113 C156.963776,49.8489023 183.726975,50.2098432 183.726975,50.2098432 L182.870578,61.9714841" id="Stroke-376" stroke="#2150B7" stroke-width="1.175625" stroke-linecap="round" stroke-linejoin="round"></path>
                <path d="M215.965038,55.2575113 C205.851394,55.6986613 190.16411,73.4744113 190.16411,73.4744113 L181.945205,61.8039886" id="Stroke-380" stroke="#2150B7" stroke-width="1.175625" stroke-linecap="round" stroke-linejoin="round"></path>
                <path d="M183.465192,53.6847841 C183.465192,53.6847841 170.766671,63.0692477 181.641819,67.8471932 C187.998137,73.992625 190.487336,77.8112068 190.487336,77.8112068 C190.487336,77.8112068 213.111281,58.751325 222.778688,65.5093341" id="Stroke-386" stroke="#2150B7" stroke-width="1.175625" stroke-linecap="round" stroke-linejoin="round"></path>
                <path d="M178.22933,66.2666023 C178.22933,66.2666023 170.117867,71.8765204 165.177898,90.8113704 C161.802501,103.750198 177.110994,103.063702 177.110994,103.063702" id="Stroke-388" stroke="#2150B7" stroke-width="1.175625" stroke-linecap="round" stroke-linejoin="round"></path>
                <path d="M170.181507,89.3937601 C170.181507,89.3937601 176.866425,87.1880101 179.503062,94.3116782" id="Stroke-390" stroke="#2150B7" stroke-width="1.175625" stroke-linecap="round" stroke-linejoin="round"></path>
                <polygon id="Fill-392" fill="#FFFFFF" fill-rule="nonzero" points="185.866438 83.5666023 199.52174 83.5666023 197.321144 106.47023 188.132127 106.47023"></polygon>
                <polygon id="Stroke-394" stroke="#2150B7" stroke-width="1.175625" stroke-linecap="round" stroke-linejoin="round" points="185.866438 83.5666023 199.52174 83.5666023 197.321144 106.47023 188.132127 106.47023"></polygon>
                <path d="M202.16844,94.1188159 L198.640899,92.2166023 C198.640899,92.2166023 200.443098,96.1704386 191.555231,96.6304613 C187.975146,96.8168295 187.563416,103.156493 194.239707,104.614411 C204.227872,106.794998 208.574166,98.6238932 202.16844,94.1188159" id="Fill-396" fill="#FFFFFF" fill-rule="nonzero"></path>
                <path d="M202.16844,94.1188159 L198.640899,92.2166023 C198.640899,92.2166023 200.443098,96.1704386 191.555231,96.6304613 C187.975146,96.8168295 187.563416,103.156493 194.239707,104.614411 C204.227872,106.794998 208.574166,98.6238932 202.16844,94.1188159 Z" id="Stroke-398" stroke="#2150B7" stroke-width="1.175625" stroke-linecap="round" stroke-linejoin="round"></path>
                <path d="M180.30064,80.4211477 L179.592466,94.4514477" id="Stroke-400" stroke="#2150B7" stroke-width="1.175625" stroke-linecap="round" stroke-linejoin="round"></path>
                <path d="M179.592466,105.808898 C179.592466,105.808898 180.252801,110.206243 191.93886,110.678061 C201.253356,111.05473 209.694986,108.858416 213.845219,105.584784" id="Stroke-402" stroke="#2150B7" stroke-width="1.175625" stroke-linecap="round" stroke-linejoin="round"></path>
                <path d="M213.132339,107.157511 C213.132339,107.157511 216.88888,116.163734 207.920236,121.62503 C201.602346,126.45802 190.741315,138.859761 190.741315,138.859761 C190.741315,138.859761 188.433277,146.415143 184.421072,151.079066 C180.408082,155.742202 174.396832,160.31412 174.396832,160.31412 L169.39726,154.922811 C169.39726,154.922811 177.680473,141.994993 179.069373,136.11378 C180.459058,130.232566 191.019723,118.26647 191.019723,118.26647" id="Stroke-404" stroke="#2150B7" stroke-width="1.175625" stroke-linecap="round" stroke-linejoin="round"></path>
                <path d="M183.473201,111.08933 L182.995595,111.724711 C182.995595,111.724711 165.913136,120.893711 164.819112,128.39798 C163.230228,135.093866 177.036105,142.708225 177.036105,142.708225" id="Stroke-408" stroke="#2150B7" stroke-width="1.175625" stroke-linecap="round" stroke-linejoin="round"></path>
                <polyline id="Stroke-410" stroke="#2150B7" stroke-width="1.175625" stroke-linecap="round" stroke-linejoin="round" points="186.428743 124.457511 178.023973 130.741343 180.306914 133.271075"></polyline>
                <path d="M185.082192,116.593875 C185.082192,116.593875 185.984075,121.416643 187.732161,121.739839" id="Stroke-412" stroke="#2150B7" stroke-width="1.175625" stroke-linecap="round" stroke-linejoin="round"></path>
                <path d="M94.5701279,7.81819277 C94.5701279,7.81819277 92.6299019,34.96032 96.7142581,37.9139019 C101.336607,41.2583064 111.756107,40.8722019 116.623926,40.6213519 C117.437974,40.5788882 118.023806,41.3896291 117.728145,42.1516155 C116.729799,44.7269564 114.556652,49.7714791 111.746696,53.0576928 C118.806484,51.1814291 124.814597,43.5867291 128.098238,40.7196473 C130.621943,38.5146837 141.407686,40.3516291 145.077176,37.9044655 C148.74745,35.4565155 151.84444,4.60117914 143.994131,1.28822914 C139.871347,-0.451993589 109.260635,0.394920047 103.313693,0.587579138 C94.4744499,0.873815502 94.5701279,7.81819277 94.5701279,7.81819277" id="Fill-414" fill="#FFFFFF" fill-rule="nonzero"></path>
                <g id="Group-13" transform="translate(121.629305, 19.164336) rotate(-38.000000) translate(-121.629305, -19.164336) translate(104.629305, 10.664336)">
                    <path d="M0.130839602,8.90064341 C-1.0341604,9.82981007 5.8958396,3.97564341 8.4258396,4.17147674 C10.4333396,4.32814341 19.6675063,11.4706434 20.7516729,13.3206434 C21.0483396,13.8256434 16.1525063,17.6864767 11.0541729,16.5281434 C5.95667294,15.3706434 0.130839602,8.90064341 0.130839602,8.90064341" id="Fill-896" fill="#FFFFFF" fill-rule="nonzero"></path>
                    <path d="M0.130839602,8.90064341 C-1.0341604,9.82981007 5.8958396,3.97564341 8.4258396,4.17147674 C10.4333396,4.32731007 19.6683396,11.4706434 20.7516729,13.3206434 C21.0483396,13.8248101 16.1533396,17.6864767 11.0550063,16.5281434 C5.95750627,15.3706434 0.130839602,8.90064341 0.130839602,8.90064341 Z" id="Stroke-900" stroke="#2150B7" stroke-width="1.25" stroke-linecap="round" stroke-linejoin="round"></path>
                    <path d="M5.83333333,5.51291424 C5.83333333,5.51291424 13.2716667,-2.08208576 18.9633333,0.557080904 C24.6541667,3.19541424 27.7158333,8.4120809 33.3233333,10.4937476 C29.5591667,14.9054142 23.75,18.2354142 19.02,15.3137476 C14.2908333,12.3920809 5.83333333,5.51291424 5.83333333,5.51291424" id="Fill-894" fill="#BBE2FF" fill-rule="nonzero"></path>
                    <path d="M5.83333333,5.5136982 C5.83333333,5.5136982 13.2725,-2.08213513 18.9633333,0.557031536 C24.6541667,3.1961982 27.7166667,8.41203154 33.3233333,10.4945315 C29.56,14.9061982 23.75,18.2353649 19.0208333,15.3136982 C14.2908333,12.3928649 5.83333333,5.5136982 5.83333333,5.5136982 Z" id="Stroke-898" stroke="#2150B7" stroke-width="1.25" stroke-linecap="round" stroke-linejoin="round"></path>
                </g>
                <path d="M94.5701279,7.81819277 C94.5701279,7.81819277 92.6299019,34.96032 96.7142581,37.9139019 C101.336607,41.2583064 111.756107,40.8722019 116.623926,40.6213519 C117.437974,40.5788882 118.023806,41.3896291 117.728145,42.1516155 C116.729799,44.7269564 114.556652,49.7714791 111.746696,53.0576928 C118.806484,51.1814291 124.814597,43.5867291 128.098238,40.7196473 C130.621943,38.5146837 141.407686,40.3516291 145.077176,37.9044655 C148.74745,35.4565155 151.84444,4.60117914 143.994131,1.28822914 C139.871347,-0.451993589 109.260635,0.394920047 103.313693,0.587579138 C94.4744499,0.873815502 94.5701279,7.81819277 94.5701279,7.81819277 Z" id="Stroke-416" stroke="#2150B7" stroke-width="1.175625" stroke-linecap="round" stroke-linejoin="round"></path>
                <path d="M102.422345,77.650739 C102.422345,77.650739 104.498246,72.0864299 106.493369,72.5897027 C108.489276,73.0937617 107.764633,76.1951799 107.764633,76.1951799 C107.764633,76.1951799 113.104568,73.8722617 115.774927,75.695839 C118.293143,77.4148299 113.056729,85.1487163 106.366321,84.6509481 C106.366321,84.6509481 100.239002,84.7618254 102.422345,77.650739" id="Fill-426" fill="#FFFFFF" fill-rule="nonzero"></path>
                <path d="M102.422345,77.650739 C102.422345,77.650739 104.498246,72.0864299 106.493369,72.5897027 C108.489276,73.0937617 107.764633,76.1951799 107.764633,76.1951799 C107.764633,76.1951799 113.104568,73.8722617 115.774927,75.695839 C118.293143,77.4148299 113.056729,85.1487163 106.366321,84.6509481 C106.366321,84.6509481 100.239002,84.7618254 102.422345,77.650739 Z" id="Stroke-428" stroke="#2150B7" stroke-width="1.175625" stroke-linecap="round" stroke-linejoin="round"></path>
                <path d="M170.188124,101.048022 C170.188124,101.048022 169.856388,96.8276088 173.890552,95.2651042 C180.217069,92.8147952 186.356152,97.2797679 186.50359,102.617604 C186.64946,107.955441 181.594991,107.224909 179.699467,106.335532 C177.803943,105.445368 177.230658,102.822845 174.935169,103.274218 C172.638895,103.726377 170.400655,103.763336 170.188124,101.048022" id="Fill-430" fill="#FFFFFF" fill-rule="nonzero"></path>
                <path d="M170.188124,101.048022 C170.188124,101.048022 169.856388,96.8276088 173.890552,95.2651042 C180.217069,92.8147952 186.356152,97.2797679 186.50359,102.617604 C186.64946,107.955441 181.594991,107.224909 179.699467,106.335532 C177.803943,105.445368 177.230658,102.822845 174.935169,103.274218 C172.638895,103.726377 170.400655,103.763336 170.188124,101.048022 Z" id="Stroke-432" stroke="#2150B7" stroke-width="1.175625" stroke-linecap="round" stroke-linejoin="round"></path>
                <g id="Group-437" transform="translate(152.928082, 151.980239)">
                    <path d="M25.9216236,5.569735 L16.5788942,14.8016441 C16.5788942,14.8016441 14.5131887,19.885485 13.2168291,20.3541577 C11.9196853,20.8228305 -1.87678048,11.6569759 0.577911301,6.123335 C1.90093527,3.13829864 11.584812,8.74507136 11.584812,8.74507136 L18.1630723,0.144612273 L24.9891545,6.03762136" id="Fill-434" fill="#2F74EB" fill-rule="nonzero"></path>
                    <path d="M25.9216236,5.569735 L16.5788942,14.8016441 C16.5788942,14.8016441 14.5131887,19.885485 13.2168291,20.3541577 C11.9196853,20.8228305 -1.87678048,11.6569759 0.577911301,6.123335 C1.90093527,3.13829864 11.584812,8.74507136 11.584812,8.74507136 L18.1630723,0.144612273 L24.9891545,6.03762136" id="Stroke-436" stroke="#2150B7" stroke-width="1.175625" stroke-linecap="round" stroke-linejoin="round"></path>
                </g>
                <path d="M65.4712568,71.6327477 C53.8957774,71.8230477 43.9178082,67.8393295 43.9178082,67.8393295" id="Stroke-438" stroke="#2150B7" stroke-width="1.175625" stroke-linecap="round" stroke-linejoin="round"></path>
                <path d="M61.998613,40.3378341 C61.998613,41.2185613 61.2873014,41.9317932 60.4089452,41.9317932 C59.5313733,41.9317932 58.8184932,41.2185613 58.8184932,40.3378341 C58.8184932,39.4571068 59.5313733,38.743875 60.4089452,38.743875 C61.2873014,38.743875 61.998613,39.4571068 61.998613,40.3378341" id="Fill-440" fill="#2150B7" fill-rule="nonzero"></path>
                <path d="M185.909572,36.4068023 C185.909572,37.2867432 185.19826,38.0007613 184.319904,38.0007613 C183.441548,38.0007613 182.729452,37.2867432 182.729452,36.4068023 C182.729452,35.526075 183.441548,34.8120568 184.319904,34.8120568 C185.19826,34.8120568 185.909572,35.526075 185.909572,36.4068023" id="Fill-442" fill="#2150B7" fill-rule="nonzero"></path>
                <g id="Group-269" transform="translate(198.414384, 124.457511)">
                    <path d="M0.658767123,5.70719136 L0.658767123,39.0458641 C0.658767123,39.0458641 1.9684589,39.9871414 3.72125,39.9871414 C5.4740411,39.9871414 7.16252397,39.0458641 7.16252397,39.0458641 L7.16252397,0.369355" id="Fill-266" fill="#FFFFFF" fill-rule="nonzero"></path>
                    <path d="M0.658767123,5.70719136 L0.658767123,39.0458641 C0.658767123,39.0458641 1.9684589,39.9871414 3.72125,39.9871414 C5.4740411,39.9871414 7.16252397,39.0458641 7.16252397,39.0458641 L7.16252397,0.369355" id="Stroke-268" stroke="#2150B7" stroke-width="1.175625" stroke-linecap="round" stroke-linejoin="round"></path>
                </g>
                <path d="M207.041096,32.4529659 L214.213815,54.3130886" id="Stroke-378" stroke="#2150B7" stroke-width="1.175625" stroke-linecap="round" stroke-linejoin="round"></path>
                <path d="M219.979568,65.4802386 C219.979568,65.4802386 234.720266,91.4318113 226.021403,101.080493 C221.438266,106.74467 207.531222,106.386875 204.12367,104.302225 C200.716903,102.217575 200.403989,96.2868204 204.949482,94.2823795 C210.243146,91.9484523 218.221287,90.2530523 218.221287,90.2530523" id="Stroke-382" stroke="#2150B7" stroke-width="1.175625" stroke-linecap="round" stroke-linejoin="round"></path>
                <path d="M213.13626,90.6454477 L212.530822,82.7802386" id="Stroke-384" stroke="#2150B7" stroke-width="1.175625" stroke-linecap="round" stroke-linejoin="round"></path>
                <path d="M212.530822,48.9666023 C212.530822,48.9666023 218.464432,50.0101068 220.467397,54.9445386 C221.459469,58.0954977 219.888623,57.8352113 223.928277,60.7266704 C227.968716,63.6189159 223.461651,70.9053613 223.461651,70.9053613" id="Stroke-406" stroke="#2150B7" stroke-width="1.175625" stroke-linecap="round" stroke-linejoin="round"></path>
            </g>
        </g>
    </g>
</svg>