<?xml version="1.0" encoding="UTF-8" standalone="no"?>
<svg width="28px" height="28px" viewBox="0 0 28 28" version="1.1" xmlns="http://www.w3.org/2000/svg" xmlns:xlink="http://www.w3.org/1999/xlink">
    <!-- Generator: Sketch 48 (47235) - http://www.bohemiancoding.com/sketch -->
    <title>插图</title>
    <desc>Created with Sketch.</desc>
    <defs></defs>
    <g id="备注：体验云导航" stroke="none" stroke-width="1" fill="none" fill-rule="evenodd" transform="translate(-659.000000, -895.000000)">
        <g id="技术方案下拉" transform="translate(632.000000, 735.000000)">
            <g id="插图" transform="translate(27.000000, 160.000000)">
                <path d="M13.4682563,26.6672494 C14.5863885,26.6672494 15.6943865,26.518648 16.7686041,26.2214452 C15.7011426,26.5153458 14.5931446,26.6672494 13.4682563,26.6672494 C13.4682563,26.6672494 13.4682563,26.6672494 13.4682563,26.6672494 Z" id="Shape"></path>
                <path d="M11.542772,3.51468531 L11.542772,3.51142191 C10.2219573,3.71375291 8.9585693,4.12494172 7.78301043,4.72867133 C6.60407352,5.33240093 5.54336811,6.11888112 4.62791853,7.06526807 C3.97257824,7.74079254 3.41182315,8.48158508 2.94565325,9.27132867 C3.40844511,8.48484848 3.97257824,7.74405594 4.62791853,7.06853147 C6.4757079,5.15944056 8.90114257,3.91934732 11.542772,3.51468531 Z" id="Shape"></path>
                <path d="M16.7787382,1.43916084 C16.5760556,1.4 16.3733731,1.36410256 16.1706905,1.33473193 L16.1706905,11.7547786 L16.7787382,11.7547786 L16.7787382,1.43916084 Z" id="Shape"></path>
                <path d="M11.542772,15.2433566 L11.542772,15.788345 L20.5520119,24.4526807 C20.1027322,24.7659674 19.6365623,25.04662 19.1501242,25.2979021 C19.6365623,25.04662 20.1061103,24.7659674 20.55539,24.4526807 L11.941381,16.1668998 C11.6880278,15.9221445 11.542772,15.5892774 11.542772,15.2433566 Z" id="Shape"></path>
                <path d="M13.2925981,15.6251748 C13.0358669,15.3804196 12.8939891,15.0475524 12.8939891,14.7016317 L12.8939891,3.51142191 C12.8939891,3.44289044 12.887233,3.37435897 12.8770989,3.30582751 C12.7588674,2.59440559 12.0663686,2.10815851 11.3299553,2.22237762 C9.86388475,2.45081585 8.45524093,2.9044289 7.1479384,3.57995338 C5.84063587,4.25221445 4.65832091,5.12680653 3.64153005,6.17762238 C1.31068058,8.58275058 0.0270243418,11.7221445 0.0270243418,15.0181818 C0.0270243418,16.7706294 0.38509687,18.4643357 1.08435171,20.0601399 C1.7633383,21.6037296 2.73283656,22.9874126 3.96582216,24.1785548 C5.20556384,25.3664336 6.64123199,26.2997669 8.2390462,26.9524476 C9.89428713,27.627972 11.6542474,27.9706294 13.4682563,27.9706294 C14.8769001,27.9706294 16.2720318,27.7585082 17.6131148,27.3407925 C18.9508197,26.9230769 20.2074516,26.3062937 21.345852,25.5132867 C21.4066567,25.4708625 21.4607054,25.4251748 21.5113761,25.3762238 C22.0383507,24.8638695 22.0383507,24.0382284 21.507998,23.5291375 L13.2925981,15.6251748 Z M19.1501242,25.2979021 C19.1230999,25.3109557 19.0960755,25.3240093 19.0690512,25.3370629 C19.0251366,25.3599068 18.9846001,25.3794872 18.9406855,25.402331 C18.8832588,25.4317016 18.822454,25.4578089 18.7616493,25.4871795 C18.7515152,25.4937063 18.741381,25.4969697 18.7312469,25.5034965 C18.2346746,25.7351981 17.7245902,25.9342657 17.1976155,26.0974359 C17.0557377,26.1431235 16.9104819,26.1855478 16.7686041,26.2247086 C15.6943865,26.5184149 14.5897665,26.6652681 13.4682563,26.6652681 C13.4682563,26.6652681 13.4682563,26.6652681 13.4682563,26.6652681 C11.8366617,26.6652681 10.2523597,26.3585082 8.76264282,25.7515152 C7.32359662,25.167366 6.0331843,24.3254079 4.9184302,23.2550117 C3.81043219,22.1846154 2.93551913,20.9379953 2.32747144,19.551049 C1.739692,18.2130536 1.42215599,16.7967366 1.38161947,15.3347319 C1.38161947,15.3282051 1.38161947,15.3216783 1.38161947,15.3118881 C1.37824143,15.213986 1.37824143,15.1160839 1.37824143,15.0181818 C1.37824143,12.9818182 1.92548435,11.0107226 2.94565325,9.27459207 C3.41182315,8.48484848 3.97257824,7.74405594 4.62791853,7.06853147 C5.54336811,6.12214452 6.60407352,5.33566434 7.78301043,4.73193473 C8.9585693,4.12820513 10.2219573,3.71701632 11.542772,3.51468531 L11.542772,3.51794872 L11.542772,15.24662 C11.542772,15.5925408 11.6880278,15.9254079 11.941381,16.1701632 L20.55539,24.4559441 C20.1061103,24.7659674 19.6365623,25.04662 19.1501242,25.2979021 Z" id="Shape" fill="#FFFFFF" fill-rule="nonzero"></path>
                <path d="M15.5633383,13.0307692 L26.3899652,13.0307692 C26.4575261,13.0307692 26.5250869,13.0242424 26.5926478,13.0111888 C27.3290611,12.9034965 27.8323895,12.2410256 27.7209141,11.5296037 C27.4945852,10.0904429 27.0351714,8.7002331 26.3528068,7.3981352 C25.6704421,6.0960373 24.7786388,4.91142191 23.7077993,3.87692308 C22.6335817,2.84242424 21.4039742,1.98741259 20.0527571,1.32820513 C18.70154,0.672261072 17.2557377,0.228438228 15.7626428,0.0130536131 C15.69846,0.00326340326 15.6308992,0 15.5633383,0 C14.8167909,0 14.2121212,0.584149184 14.2121212,1.30536131 L14.2121212,11.7254079 C14.2121212,12.44662 14.8167909,13.0307692 15.5633383,13.0307692 Z M15.5633383,1.30536131 C15.7660209,1.33473193 15.9687034,1.37062937 16.171386,1.40979021 C17.3064083,1.62843823 18.4076503,1.99393939 19.4480874,2.4965035 C20.6743169,3.09044289 21.785693,3.86713287 22.7585693,4.8037296 C23.7280676,5.74032634 24.5320417,6.81072261 25.1502235,7.98881119 C25.7650273,9.16689977 26.1839046,10.42331 26.3865872,11.7254079 L16.171386,11.7254079 L15.5633383,11.7254079 L15.5633383,1.30536131 Z" id="Shape" fill="#FFFFFF" fill-rule="nonzero"></path>
                <path d="M26.8663686,14.2866036 L15.1884749,14.2866036 C14.8,14.2866036 14.4892201,14.5998903 14.5128664,14.9784451 C14.5230005,15.1448787 14.6040735,15.2982586 14.7256831,15.4157411 L23.0052658,23.3197038 C23.2822653,23.5807761 23.7247889,23.5709859 23.9848982,23.2935966 C26.0623944,21.0646922 27.3764531,18.1602633 27.5419771,14.9686549 C27.5622454,14.5966269 27.2514655,14.2866036 26.8663686,14.2866036 Z" id="Shape" fill="#AB33F7" fill-rule="nonzero"></path>
                <path d="M25.2389995,17.4273929 C25.4109012,17.7760977 25.4968521,18.1263972 25.4968521,18.4782913 C25.4968521,18.8326009 25.4097172,19.1885272 25.2354474,19.5460701 L25.2354209,19.5460572 C25.1235587,19.7755607 24.8468272,19.8709278 24.6173237,19.7590656 C24.4408383,19.673045 24.3379389,19.4849315 24.3606989,19.2899222 C24.3929906,19.0132439 24.4091365,18.7379969 24.4091365,18.464181 C24.4091365,18.2028255 24.3944266,17.9427738 24.365007,17.684026 L24.3650401,17.6840222 C24.3361971,17.4303453 24.5184609,17.2013176 24.7721377,17.1724745 C24.9659553,17.1504375 25.1527483,17.2524312 25.2389995,17.4273929 Z" id="Rectangle" fill="#FFFFFF" transform="translate(24.927210, 18.487702) rotate(25.000000) translate(-24.927210, -18.487702) "></path>
            </g>
        </g>
    </g>
</svg>