<?xml version="1.0" encoding="UTF-8" standalone="no"?>
<svg width="25px" height="32px" viewBox="0 0 25 32" version="1.1" xmlns="http://www.w3.org/2000/svg" xmlns:xlink="http://www.w3.org/1999/xlink">
    <!-- Generator: Sketch 48 (47235) - http://www.bohemiancoding.com/sketch -->
    <title>插图</title>
    <desc>Created with Sketch.</desc>
    <defs></defs>
    <g id="备注：体验云导航" stroke="none" stroke-width="1" fill="none" fill-rule="evenodd" transform="translate(-660.000000, -769.000000)">
        <g id="技术方案下拉" transform="translate(632.000000, 735.000000)">
            <g id="插图" transform="translate(28.000000, 34.000000)">
                <path d="M18.4375,21.3534892 C21.4464893,19.434803 23.4375,16.1001833 23.4375,12.3076923 C23.4375,6.36001039 18.5406145,1.53846154 12.5,1.53846154 C6.45938555,1.53846154 1.5625,6.36001039 1.5625,12.3076923 C1.5625,16.1001833 3.55351068,19.434803 6.5625,21.3534892 L6.5625,25.5769231 L18.4375,25.5769231 L18.4375,21.3534892 Z M5,22.1547475 C1.96388324,19.9093166 0,16.3343208 0,12.3076923 C0,5.51034154 5.59644063,0 12.5,0 C19.4035594,0 25,5.51034154 25,12.3076923 C25,16.3343208 23.0361168,19.9093166 20,22.1547475 L20,25.5384615 C20,26.3881304 19.3112073,27.0769231 18.4615385,27.0769231 L6.53846154,27.0769231 C5.68879269,27.0769231 5,26.3881304 5,25.5384615 L5,22.1547475 Z M8.58173077,30.4615385 L16.4182692,30.4615385 C16.8431037,30.4615385 17.1875,30.8059348 17.1875,31.2307692 C17.1875,31.6556037 16.8431037,32 16.4182692,32 L8.58173077,32 C8.15689635,32 7.8125,31.6556037 7.8125,31.2307692 C7.8125,30.8059348 8.15689635,30.4615385 8.58173077,30.4615385 Z M9.99038462,22.2307692 L15.0096154,22.2307692 C15.3494829,22.2307692 15.625,22.5062863 15.625,22.8461538 C15.625,23.1860214 15.3494829,23.4615385 15.0096154,23.4615385 L9.99038462,23.4615385 C9.65051708,23.4615385 9.375,23.1860214 9.375,22.8461538 C9.375,22.5062863 9.65051708,22.2307692 9.99038462,22.2307692 Z M9.99038462,19.7692308 L15.0096154,19.7692308 C15.3494829,19.7692308 15.625,20.0447478 15.625,20.3846154 C15.625,20.7244829 15.3494829,21 15.0096154,21 L9.99038462,21 C9.65051708,21 9.375,20.7244829 9.375,20.3846154 C9.375,20.0447478 9.65051708,19.7692308 9.99038462,19.7692308 Z" id="Combined-Shape" fill="#FFFFFF"></path>
                <ellipse id="Oval-2" fill="#FF54B2" cx="12.5" cy="11.6" rx="5.64516129" ry="5.6"></ellipse>
                <ellipse id="Oval-7" fill="#FFFFFF" cx="10.8870968" cy="10" rx="1" ry="1"></ellipse>
            </g>
        </g>
    </g>
</svg>