<?xml version="1.0" encoding="UTF-8" standalone="no"?>
<svg width="30px" height="26px" viewBox="0 0 30 26" version="1.1" xmlns="http://www.w3.org/2000/svg" xmlns:xlink="http://www.w3.org/1999/xlink">
    <!-- Generator: Sketch 48 (47235) - http://www.bohemiancoding.com/sketch -->
    <title>图形</title>
    <desc>Created with Sketch.</desc>
    <defs>
        <linearGradient x1="208904%" y1="286453%" x2="223091%" y2="286453%" id="linearGradient-1">
            <stop stop-color="#6500FF" offset="0%"></stop>
            <stop stop-color="#6A09FF" offset="16%"></stop>
            <stop stop-color="#7623FF" offset="43%"></stop>
            <stop stop-color="#8A4CFF" offset="77%"></stop>
            <stop stop-color="#996BFF" offset="99%"></stop>
        </linearGradient>
        <linearGradient x1="213941%" y1="285005%" x2="213941%" y2="284971%" id="linearGradient-2">
            <stop stop-color="#6500FF" offset="0%"></stop>
            <stop stop-color="#6909FF" offset="21%"></stop>
            <stop stop-color="#7323FF" offset="55%"></stop>
            <stop stop-color="#844CFF" offset="98%"></stop>
            <stop stop-color="#844DFF" offset="99%"></stop>
        </linearGradient>
        <linearGradient x1="218077%" y1="305212%" x2="218077%" y2="284967%" id="linearGradient-3">
            <stop stop-color="#6500FF" offset="0%"></stop>
            <stop stop-color="#6909FF" offset="16%"></stop>
            <stop stop-color="#7523FF" offset="43%"></stop>
            <stop stop-color="#894CFF" offset="77%"></stop>
            <stop stop-color="#976BFF" offset="99%"></stop>
        </linearGradient>
        <linearGradient x1="228041%" y1="291683%" x2="228041%" y2="284965%" id="linearGradient-4">
            <stop stop-color="#FF6E06" offset="0%"></stop>
            <stop stop-color="#FF770C" offset="28%"></stop>
            <stop stop-color="#FF911C" offset="75%"></stop>
            <stop stop-color="#FFA126" offset="100%"></stop>
        </linearGradient>
        <linearGradient x1="220374%" y1="295437%" x2="220374%" y2="290395%" id="linearGradient-5">
            <stop stop-color="#FF6E06" offset="0%"></stop>
            <stop stop-color="#FF770C" offset="28%"></stop>
            <stop stop-color="#FF911C" offset="75%"></stop>
            <stop stop-color="#FFA126" offset="100%"></stop>
        </linearGradient>
    </defs>
    <g id="备注：体验云导航" stroke="none" stroke-width="1" fill="none" fill-rule="evenodd" transform="translate(-779.000000, -1423.000000)">
        <g id="技术方案下拉" transform="translate(752.000000, 1321.000000)" fill-rule="nonzero">
            <g id="图形" transform="translate(27.000000, 102.000000)">
                <path d="M17.1057997,0.0271928601 L1.79309057,0.0271928601 L1.71240833,0.0271928601 L1.68508047,0.0271928601 L1.62131547,0.0271928601 L1.6030969,0.0271928601 L1.52501731,0.0375520449 L1.50549741,0.0375520449 L1.44563639,0.0479112298 L1.42351384,0.0479112298 L1.34933823,0.0647449051 L1.34153027,0.0647449051 L1.27516262,0.0828734785 L1.25043741,0.0906428671 L1.19708303,0.108771441 L1.1762618,0.116540829 L1.10859282,0.142438791 L1.08516895,0.152797976 L1.03962252,0.173516346 L1.01359599,0.186465327 L0.9602416,0.213658187 L0.931612416,0.229196964 L0.888668641,0.253800028 L0.860039458,0.270633703 L0.824903642,0.293941869 L0.797575785,0.312070442 L0.745522724,0.349622487 L0.715592214,0.371635755 L0.68696303,0.393649023 L0.65703252,0.418252087 L0.63100599,0.441560253 L0.580254256,0.486881686 L0.558131705,0.507600056 L0.528201195,0.53867761 L0.509982624,0.558101082 L0.447518951,0.628025579 L0.447518951,0.63450007 L0.417588441,0.670757217 L0.403273849,0.68888579 L0.374644666,0.726437835 L0.368138033,0.735502122 C0.349051911,0.761400084 0.330833339,0.788161311 0.313482319,0.815785804 L0.303071707,0.831324581 L0.277045177,0.87276132 L0.267935891,0.889594996 L0.260127932,0.902543977 L4.02096158,3.03783095 L3.37680495,3.03783095 L4.75881371,3.86138614 C4.68094135,3.73949879 4.67389549,3.58565339 4.74030372,3.45722336 C4.80671196,3.32879332 4.93660528,3.2450582 5.08154269,3.23724525 L16.9678591,3.23724525 C17.0095016,3.23724525 17.0524454,3.23724525 17.0979918,3.23724525 C17.9963703,3.23974829 18.7266891,2.51709536 18.7292046,1.62315477 C18.73172,0.729214178 18.0054796,0.00250303366 17.1071011,0 L17.1057997,0.0271928601 Z" id="Shape" fill="url(#linearGradient-1)"></path>
                <path d="M6.80578613,0.0437623762 C7.01686555,0.00900990099 7.15351812,0 7.15351812,0 L6.50319829,0 C6.60495039,0.00664814546 6.70609235,0.0212760057 6.80578613,0.0437623762 Z" id="Shape" fill="url(#linearGradient-2)"></path>
                <path d="M22.7232658,9.68202296 C22.1293925,9.68214518 21.5829189,10.0021031 21.2981264,10.5164357 L15.305767,20.7518136 C15.2346017,20.871539 15.1062679,20.946953 14.9657063,20.9516468 C14.8251446,20.9563406 14.6919396,20.8896602 14.6127376,20.774956 L10.808892,14.2732218 C10.7779023,14.1990545 10.7413247,14.1272834 10.6994664,14.0585116 L4.36971103,3.21500243 C4.00393422,2.565221 4.00124138,1.77572643 4.36257735,1.12352923 C4.72391333,0.471332033 5.39881681,0.0475128875 6.15048393,0.000777516388 L1.85161739,0.000777516388 C1.5825805,-0.00714897852 1.31525808,0.0456179257 1.07000529,0.155060312 L1.06218917,0.155060312 L0.968395714,0.201345151 L0.926709736,0.22448757 L0.905866746,0.23605878 L0.847245839,0.270772409 L0.818586729,0.288772069 L0.787322245,0.310628798 L0.756057761,0.332485528 L0.72349059,0.356913637 L0.679199237,0.391627266 L0.655750874,0.410912615 L0.616670269,0.445626244 L0.601038028,0.459768834 L0.550233241,0.508625053 L0.533298312,0.526624712 L0.48900696,0.572909551 L0.481190839,0.581909381 L0.432991426,0.638479739 L0.419964558,0.655193709 L0.375673205,0.713049757 L0.331381853,0.777334256 L0.320960358,0.794048225 C0.306630803,0.815904955 0.292301248,0.839047374 0.27927438,0.862189793 L0.264944825,0.887903593 L0.232377654,0.869903933 C-0.0843119346,1.4164107 -0.0768372677,2.08920594 0.251917956,2.62872781 L0.408240376,2.89615132 L13.3986335,25.1103025 C13.5248317,25.3434009 13.7030006,25.5451821 13.9197082,25.7004342 L13.9262216,25.7004342 C13.9548807,25.7201482 13.9839741,25.7394335 14.0135017,25.7582903 L14.0538849,25.7827184 L14.0747279,25.7942896 L14.1346515,25.8264319 L14.1646133,25.8418601 L14.1984832,25.8585741 L14.2336557,25.8740024 L14.2714336,25.8907164 L14.3235411,25.9112874 L14.3522002,25.9215729 L14.4017023,25.9382869 L14.4225453,25.9447153 L14.490285,25.9640007 L14.5150361,25.9640007 L14.5775651,25.9781433 L14.5892892,25.9781433 L14.6635424,25.9910002 L14.6843854,25.9910002 L14.7573358,26 L14.835497,26 L14.8550374,26 L14.9358039,26 L15.0374135,26 L15.1129693,26 L15.1898279,25.9897145 L15.2106709,25.9897145 L15.2784106,25.9781433 L15.2888321,25.9781433 L15.3617825,25.9614293 L15.3852309,25.9614293 L15.4438518,25.9447153 L15.459484,25.9447153 L15.5259211,25.9228586 L15.5519748,25.9138588 L15.6001742,25.8945734 L15.6236226,25.8855736 L15.6835462,25.8585741 L15.713508,25.8444315 L15.7499832,25.8251462 L15.7890638,25.8045751 L15.8320525,25.780147 L15.8659223,25.759576 L15.8919761,25.742862 L15.954505,25.7004342 L15.97144,25.688863 L16.0079152,25.6618635 L16.0248501,25.6490066 C16.0647992,25.617293 16.1034456,25.5842936 16.1407893,25.5500085 L16.1499081,25.5422944 C16.1889887,25.5054379 16.2263324,25.4668672 16.2619391,25.4265823 C16.2984144,25.3845831 16.3331527,25.3417267 16.3661541,25.2980133 C16.3991555,25.2525856 16.4299857,25.2054436 16.4586448,25.1565874 L16.8064622,24.5625986 L16.8833207,24.4340296 L24.0741521,12.1415479 C24.3878362,11.6473376 24.4048797,11.0239962 24.1186578,10.5138085 C23.832436,10.0036208 23.2880945,9.68705863 22.6972121,9.68716572 L22.7232658,9.68202296 Z" id="Shape" fill="url(#linearGradient-3)"></path>
                <path d="M28.1662506,0 L22.0473973,0 C21.1486341,0 20.4200426,0.719959166 20.4200426,1.6080738 C20.4200426,2.49618844 21.1486341,3.21614761 22.0473973,3.21614761 C22.0903594,3.21614761 22.1320197,3.21614761 22.1775856,3.21614761 L24.9479941,3.21614761 C25.1509075,3.24377736 25.3020732,3.41511884 25.3021065,3.61752283 C25.3014614,3.66138202 25.2935452,3.70484015 25.2786726,3.74616873 L23.819261,6.2444722 C23.5401899,6.74820208 23.5542766,7.36078636 23.8562145,7.85147043 C24.1581525,8.3421545 24.7020702,8.63639178 25.2830791,8.62334591 C25.8640881,8.61030004 26.3939191,8.29195299 26.67299,7.78822305 L29.695964,2.61537124 C29.7237375,2.56820107 29.7493412,2.51974445 29.7727751,2.47000136 L29.7727751,2.46356907 C29.7866619,2.43269405 29.8001147,2.40096139 29.8131335,2.3683711 L29.830058,2.32334503 L29.8378693,2.30018877 C29.8448127,2.27960543 29.8513221,2.25859326 29.8573976,2.23715228 L29.8678126,2.20113142 L29.8769258,2.16639703 L29.8873409,2.12137096 L29.8938503,2.08920949 C29.8938503,2.06862614 29.897756,2.0480428 29.9055673,2.02745945 L29.9055673,2.00173027 C29.9055673,1.97986047 29.9055673,1.95799066 29.9146804,1.93612086 L29.9146804,1.92711565 C29.9146804,1.90138647 29.9146804,1.87565729 29.9146804,1.8499281 L29.9146804,1.82934476 C29.9146804,1.80361558 29.9146804,1.77659994 29.9146804,1.7495843 C29.9204511,0.789491858 29.1378503,0.00637432699 28.1662506,0 Z" id="Shape" fill="url(#linearGradient-4)"></path>
                <path d="M18.6258414,7.3334112 C18.4913773,7.097935 18.2395068,6.95178426 17.9659387,6.95049505 L12.20761,6.95049505 C11.9353908,6.95047452 11.6838404,7.09400044 11.5477218,7.32700438 C11.4116032,7.56000832 11.4115977,7.84708861 11.5477073,8.08009768 L14.4275174,13.0095049 C14.5636066,13.2425611 14.8151697,13.3861386 15.08742,13.3861386 C15.3596704,13.3861386 15.6112335,13.2425611 15.7473227,13.0095049 L18.6271328,8.08009768 C18.7632372,7.8470975 18.7632372,7.56002944 18.6271328,7.32702926 L18.6258414,7.3334112 Z" id="Shape" fill="url(#linearGradient-5)"></path>
            </g>
        </g>
    </g>
</svg>