<?xml version="1.0" encoding="UTF-8" standalone="no"?>
<svg width="29px" height="29px" viewBox="0 0 29 29" version="1.1" xmlns="http://www.w3.org/2000/svg" xmlns:xlink="http://www.w3.org/1999/xlink">
    <!-- Generator: Sketch 48 (47235) - http://www.bohemiancoding.com/sketch -->
    <title>插图</title>
    <desc>Created with Sketch.</desc>
    <defs></defs>
    <g id="备注：体验云导航" stroke="none" stroke-width="1" fill="none" fill-rule="evenodd" transform="translate(-658.000000, -833.000000)">
        <g id="技术方案下拉" transform="translate(632.000000, 735.000000)">
            <g id="插图" transform="translate(26.000000, 98.000000)">
                <path d="M24.8340757,15.571317 C25.589755,14.9952009 26.3454343,14.3575893 27.1011136,13.6584821 C26.3454343,14.3543527 25.589755,14.9919643 24.8340757,15.571317 Z" id="Shape"></path>
                <path d="M20.9652561,17.9825893 C21.8178174,17.5715402 22.6800668,17.0763393 23.5423163,16.4969866 L23.5423163,16.49375 C22.6800668,17.0731027 21.8178174,17.5715402 20.9652561,17.9825893 Z" id="Shape"></path>
                <path d="M1.90211581,13.6552455 C1.89888641,13.6584821 1.89888641,13.6584821 1.90211581,13.6552455 C2.6545657,14.3543527 3.41347439,14.9919643 4.16592428,15.5680804 C3.41024499,14.9919643 2.6545657,14.3543527 1.90211581,13.6552455 Z" id="Shape"></path>
                <path d="M20.9652561,17.9825893 C20.5938753,18.1606027 20.2257238,18.322433 19.854343,18.471317 C20.2257238,18.322433 20.5971047,18.1606027 20.9652561,17.9825893 Z" id="Shape"></path>
                <path d="M7.36302895,13.6552455 C7.36302895,11.7877232 8.07672606,10.0820313 9.24576837,8.80680804 C9.24576837,8.80680804 9.24253898,8.80680804 9.24253898,8.81004464 C8.07349666,10.0852679 7.36302895,11.7844866 7.36302895,13.6520089 C7.36302895,13.6552455 7.36302895,13.6552455 7.36302895,13.6552455 Z" id="Shape"></path>
                <path d="M21.846882,18.9924107 C21.8081292,19.0085938 21.7726058,19.0280134 21.733853,19.047433 C21.7112472,19.0571429 21.685412,19.0700893 21.6595768,19.0830357 C21.6143653,19.105692 21.5659243,19.1283482 21.5207127,19.1510045 C21.5207127,19.1510045 21.5174833,19.1542411 21.5142539,19.1542411 C21.4755011,19.1736607 21.4367483,19.1898438 21.3979955,19.2092634 C21.3624722,19.2254464 21.3301782,19.2416295 21.2946548,19.2578125 C21.2365256,19.286942 21.1783964,19.3128348 21.1202673,19.3387277 C21.1041203,19.3452009 21.0912027,19.3516741 21.0782851,19.3581473 C18.9662584,20.3129464 16.8283964,20.8113839 14.7163697,20.84375 C14.6711581,20.84375 14.6227171,20.84375 14.5775056,20.84375 C14.5613586,20.84375 14.5452116,20.84375 14.5290646,20.84375 C14.5258352,20.84375 14.5193764,20.84375 14.516147,20.84375 C14.5096882,20.84375 14.5032294,20.84375 14.4967706,20.84375 C14.4224944,20.84375 14.3514477,20.8405134 14.2771715,20.8405134 C14.0414254,20.8372768 13.8056793,20.827567 13.5667038,20.8113839 C12.3912027,20.736942 11.2124722,20.5168527 10.0337416,20.1575893 C9.32650334,19.9407366 8.61926503,19.6720982 7.91202673,19.3549107 C7.89910913,19.3484375 7.88619154,19.3419643 7.87327394,19.3354911 C7.81514477,19.3095982 7.75701559,19.2804688 7.69888641,19.2545759 C7.66336303,19.2383929 7.63106904,19.2222098 7.59554566,19.2060268 C7.55679287,19.1866071 7.51804009,19.1704241 7.47928731,19.1510045 C7.47928731,19.1510045 7.47605791,19.1477679 7.47282851,19.1477679 C7.42438753,19.1251116 7.37917595,19.1024554 7.33396437,19.0797991 C7.30812918,19.0700893 7.28229399,19.0571429 7.2564588,19.0441964 C7.22093541,19.0247768 7.18541203,19.0085938 7.14988864,18.9891741 C7.08530067,18.956808 7.0174833,18.924442 6.95289532,18.8888393 C6.45233853,18.6299107 5.95501114,18.3483259 5.45445434,18.0376116 L5.45445434,24.0803571 L5.45445434,26.4107143 C5.45445434,27.1260045 6.0325167,27.7053571 6.74621381,27.7053571 L7.0045657,27.7053571 C7.71826281,27.7053571 8.29632517,27.1260045 8.29632517,26.4107143 L8.29632517,24.7276786 C8.29632517,24.3716518 8.58697105,24.0803571 8.9422049,24.0803571 L9.58808463,24.0803571 L23.5390869,24.0803571 L23.5390869,18.0376116 C23.0385301,18.3483259 22.5379733,18.6331473 22.0406459,18.8920759 C21.9792873,18.924442 21.9114699,18.9600446 21.846882,18.9924107 Z" id="Shape"></path>
                <path d="M21.8824053,8.34397321 C22.4378619,8.62555804 22.9900891,8.93627232 23.5423163,9.27611607 L23.5423163,1.29464286 L5.45768374,1.29464286 L5.45768374,6.21428571 L5.45768374,9.27935268 C6.01314031,8.93627232 6.56536748,8.62232143 7.12082405,8.34397321 C6.56859688,8.62555804 6.01314031,8.93627232 5.45768374,9.28258929 L5.45768374,9.28582589 C6.01314031,8.93950893 6.56859688,8.62879464 7.12082405,8.34720982 C7.16926503,8.32455357 7.21447661,8.29866071 7.26291759,8.27600446 C7.27906459,8.26953125 7.29844098,8.25982143 7.31781737,8.25011161 C7.37271715,8.22421875 7.42438753,8.19832589 7.47605791,8.17243304 C7.47928731,8.17243304 7.4825167,8.16919643 7.4857461,8.16919643 C7.51804009,8.15301339 7.55356347,8.13683036 7.58585746,8.12064732 C7.62461024,8.10122768 7.66336303,8.08504464 7.70211581,8.065625 C7.75701559,8.03973214 7.81191537,8.01707589 7.86681514,7.99118304 C7.88296214,7.98470982 7.90233853,7.975 7.91848552,7.96852679 C10.0337416,7.01372768 12.1683742,6.51529018 14.2804009,6.48292411 C14.3546771,6.4796875 14.4257238,6.4796875 14.5,6.4796875 C14.5064588,6.4796875 14.5129176,6.4796875 14.5193764,6.4796875 C14.5226058,6.4796875 14.5290646,6.4796875 14.532294,6.4796875 C14.548441,6.4796875 14.564588,6.4796875 14.580735,6.4796875 C14.6259465,6.4796875 14.6743875,6.4796875 14.7195991,6.4796875 C16.8316258,6.51205357 18.9662584,7.01049107 21.0815145,7.96529018 C21.0976615,7.97176339 21.1170379,7.98147321 21.1331849,7.98794643 C21.1880846,8.01060268 21.2429844,8.03649554 21.2978842,8.06238839 C21.336637,8.07857143 21.3753898,8.09799107 21.4141425,8.11741071 C21.4464365,8.13359375 21.4819599,8.14977679 21.5142539,8.16595982 C21.5174833,8.16595982 21.5207127,8.16919643 21.5239421,8.16919643 C21.5756125,8.19508929 21.6305122,8.22098214 21.6821826,8.246875 C21.701559,8.25334821 21.717706,8.26305804 21.7370824,8.27276786 C21.7855234,8.29866071 21.8339644,8.32131696 21.8824053,8.34720982 C22.4346325,8.62879464 22.9868597,8.93950893 23.5423163,9.28582589 L23.5423163,9.28258929 C22.9868597,8.93627232 22.4346325,8.62555804 21.8824053,8.34397321 Z M8.71937639,7.62220982 C8.4545657,7.72901786 8.18652561,7.84229911 7.91848552,7.96205357 C8.18329621,7.84229911 8.4513363,7.72901786 8.71937639,7.62220982 C10.5730512,6.8875 12.4267261,6.50558036 14.2804009,6.47645089 C12.4331849,6.50558036 10.5698218,6.8875 8.71937639,7.62220982 Z M20.2806236,7.62220982 C18.4301782,6.8875 16.5668151,6.50558036 14.7195991,6.47645089 C16.5732739,6.50558036 18.4269488,6.8875 20.2806236,7.62220982 C20.5486637,7.72901786 20.8134744,7.84229911 21.0815145,7.96205357 C20.8134744,7.84229911 20.5486637,7.72901786 20.2806236,7.62220982 Z" id="Shape"></path>
                <path d="M2.87416481,1.29464286 L2.61581292,1.29464286 C1.90211581,1.29464286 1.32405345,1.87399554 1.32405345,2.58928571 L1.32405345,4.91964286 L4.16592428,4.91964286 L4.16592428,2.58928571 C4.16592428,1.87399554 3.58786192,1.29464286 2.87416481,1.29464286 Z" id="Shape"></path>
                <path d="M9.24576837,18.5166295 C9.24253898,18.5101563 9.23608018,18.5069196 9.23285078,18.5004464 C8.83240535,18.3450893 8.43518931,18.1703125 8.03474388,17.9793527 C7.18218263,17.5683036 6.31993318,17.0731027 5.45768374,16.49375 C6.31993318,17.0731027 7.18218263,17.5683036 8.03474388,17.9825893 C8.43841871,18.1767857 8.84209354,18.3547991 9.24576837,18.5166295 Z" id="Shape"></path>
                <path d="M26.3841871,27.6988839 L23.5423163,27.6988839 C22.8286192,27.6988839 22.2505568,27.1195313 22.2505568,26.4074777 L22.2505568,25.375 L9.59131403,25.375 L9.59131403,26.28125 C9.59131403,26.8023438 9.44599109,27.2910714 9.1908686,27.7053571 L23.5423163,27.7053571 L26.3841871,27.7053571 C27.0978842,27.7053571 27.6759465,27.1260045 27.6759465,26.4107143 L27.6759465,26.4074777 C27.6759465,27.1195313 27.0978842,27.6988839 26.3841871,27.6988839 Z" id="Shape"></path>
                <path d="M23.5423163,16.49375 C23.9718263,16.2089286 24.4045657,15.8982143 24.8340757,15.571317 L24.8340757,15.5680804 C24.4045657,15.8982143 23.9718263,16.205692 23.5423163,16.49375 Z" id="Shape" fill="#0D1A26" fill-rule="nonzero"></path>
                <path d="M23.5423163,9.28582589 C23.9718263,9.55446429 24.4045657,9.83928571 24.8340757,10.1467634 L24.8340757,10.1435268 C24.4045657,9.83604911 23.9718263,9.54799107 23.5423163,9.28582589 Z" id="Shape" fill="#0D1A26" fill-rule="nonzero"></path>
                <path d="M5.45768374,9.28258929 C5.02817372,9.55122768 4.5954343,9.83604911 4.16592428,10.1435268 L4.16592428,10.1467634 C4.5954343,9.83928571 5.02817372,9.55446429 5.45768374,9.28258929 Z" id="Shape" fill="#0D1A26" fill-rule="nonzero"></path>
                <path d="M5.45768374,6.21428571 L5.45768374,1.29464286 L23.5423163,1.29464286 L23.5423163,9.27611607 C23.9718263,9.54475446 24.4045657,9.8328125 24.8340757,10.1370536 L24.8340757,1.29464286 C24.8340757,0.579352679 24.2560134,0 23.5423163,0 L5.45768374,0 L2.35746102,0 C1.07216036,0 0.0322939866,1.0421875 0.0322939866,2.33035714 L0.0322939866,5.17857143 C0.0322939866,5.75145089 0.494097996,6.21428571 1.06570156,6.21428571 L4.16592428,6.21428571 L4.16592428,10.1402902 C4.5954343,9.8328125 5.02817372,9.54799107 5.45768374,9.27935268 L5.45768374,6.21428571 Z M4.16592428,4.91964286 L1.32405345,4.91964286 L1.32405345,2.58928571 C1.32405345,1.87399554 1.90211581,1.29464286 2.61581292,1.29464286 L2.87416481,1.29464286 C3.58786192,1.29464286 4.16592428,1.87399554 4.16592428,2.58928571 L4.16592428,4.91964286 Z" id="Shape" fill="#FFFFFF" fill-rule="nonzero"></path>
                <path d="M27.9342984,24.0803571 L24.8340757,24.0803571 L24.8340757,17.1766741 C24.7436526,17.2414062 24.6564588,17.3029018 24.5660356,17.3643973 C24.536971,17.383817 24.5079065,17.4032366 24.4788419,17.4226562 C24.4530067,17.4388393 24.4304009,17.4550223 24.4045657,17.4712054 C24.3755011,17.490625 24.3432071,17.5132812 24.3141425,17.5327009 C24.2753898,17.5585937 24.236637,17.5844866 24.1978842,17.6103795 C24.1914254,17.6136161 24.1849666,17.6200893 24.1785078,17.6233259 C23.9653675,17.7657366 23.7554566,17.9016741 23.5423163,18.034375 L23.5423163,24.0803571 L9.59131403,24.0803571 L8.9454343,24.0803571 C8.59020045,24.0803571 8.29955457,24.3716518 8.29955457,24.7276786 L8.29955457,26.4107143 C8.29955457,27.1260045 7.7214922,27.7053571 7.0077951,27.7053571 L6.74944321,27.7053571 C6.0357461,27.7053571 5.45768374,27.1260045 5.45768374,26.4107143 L5.45768374,24.0803571 L5.45768374,18.0376116 C5.02817372,17.7689732 4.5954343,17.4809152 4.16592428,17.1766741 L4.16592428,25.375 L4.16592428,25.9575893 L4.16592428,26.6696429 C4.16592428,27.9578125 5.20579065,29 6.49109131,29 L6.87861915,29 C6.93028953,29 6.98195991,28.9967634 7.03363029,28.9967634 C7.08853007,29 7.14665924,29 7.20155902,29 L23.5423163,29 L26.642539,29 C27.9278396,29 28.967706,27.9578125 28.967706,26.6696429 L28.967706,25.1160714 C28.967706,24.543192 28.505902,24.0803571 27.9342984,24.0803571 Z M27.6759465,26.4074777 C27.6759465,27.1260045 27.0978842,27.7053571 26.3841871,27.7053571 L23.5423163,27.7053571 L9.1908686,27.7053571 C9.44599109,27.2910714 9.59131403,26.8023437 9.59131403,26.28125 L9.59131403,25.375 L22.2505568,25.375 L24.188196,25.375 L27.6759465,25.375 L27.6759465,26.4074777 Z" id="Shape" fill="#FFFFFF" fill-rule="nonzero"></path>
                <path d="M4.16592428,15.5680804 C4.5954343,15.8982143 5.02817372,16.205692 5.45768374,16.49375 C5.02817372,16.205692 4.5954343,15.8982143 4.16592428,15.5680804 Z" id="Shape" fill="#0D1A26" fill-rule="nonzero"></path>
                <path d="M14.2804009,6.47645089 C12.4267261,6.50558036 10.5730512,6.8875 8.71937639,7.62220982 C10.5698218,6.8875 12.4331849,6.50558036 14.2804009,6.47645089 Z" id="Shape" fill="#FFFFFF" fill-rule="nonzero"></path>
                <path d="M8.71937639,7.62220982 C8.4513363,7.72901786 8.18652561,7.84229911 7.91848552,7.96205357 C8.18652561,7.84229911 8.4513363,7.72901786 8.71937639,7.62220982 Z" id="Shape" fill="#FFFFFF" fill-rule="nonzero"></path>
                <path d="M6.95612472,18.8888393 C5.17026726,17.9631696 3.36503341,16.6944196 1.57271715,15.1084821 C2.43819599,15.875558 3.30044543,16.5649554 4.16592428,17.1766741 C4.5954343,17.4809152 5.02817372,17.7689732 5.45768374,18.0376116 C5.95824053,18.3483259 6.45556793,18.6299107 6.95612472,18.8888393 Z" id="Shape" fill="#FFFFFF" fill-rule="nonzero"></path>
                <path d="M21.8824053,8.34397321 C22.4346325,8.62555804 22.9868597,8.93627232 23.5423163,9.28258929 C23.9718263,9.55122768 24.4045657,9.83604911 24.8340757,10.1435268 C25.8804009,10.8879464 26.9299555,11.7424107 27.9730512,12.7069196 C26.9267261,11.7391741 25.8804009,10.8847098 24.8340757,10.1402902 C24.4045657,9.83604911 23.9718263,9.54799107 23.5423163,9.27935268 C22.9900891,8.93627232 22.4378619,8.62555804 21.8824053,8.34397321 Z" id="Shape" fill="#FFFFFF" fill-rule="nonzero"></path>
                <path d="M20.2806236,7.62220982 C18.4269488,6.8875 16.5732739,6.50558036 14.7195991,6.47645089 C16.5668151,6.50558036 18.4301782,6.8875 20.2806236,7.62220982 Z" id="Shape" fill="#FFFFFF" fill-rule="nonzero"></path>
                <path d="M21.0815145,7.96205357 C20.8167038,7.84229911 20.5486637,7.72901786 20.2806236,7.62220982 C20.5486637,7.72901786 20.8134744,7.84229911 21.0815145,7.96205357 Z" id="Shape" fill="#FFFFFF" fill-rule="nonzero"></path>
                <path d="M10.036971,20.1575893 C11.2157016,20.5168527 12.3912027,20.736942 13.5699332,20.8113839 C12.3944321,20.736942 11.2157016,20.5168527 10.036971,20.1575893 Z" id="Shape" fill="#FFFFFF" fill-rule="nonzero"></path>
                <path d="M7.12082405,8.34397321 C6.56536748,8.62232143 6.01314031,8.93627232 5.45768374,9.27935268 C5.02817372,9.54799107 4.5954343,9.8328125 4.16592428,10.1402902 C3.11959911,10.8847098 2.07004454,11.7391741 1.02371938,12.7101563 C2.06681514,11.7456473 3.11636971,10.8879464 4.16592428,10.1435268 C4.5954343,9.83928571 5.02817372,9.55122768 5.45768374,9.28258929 C6.01314031,8.93627232 6.56859688,8.62555804 7.12082405,8.34397321 Z" id="Shape" fill="#FFFFFF" fill-rule="nonzero"></path>
                <path d="M7.15311804,18.9891741 C7.18864143,19.0085938 7.22416481,19.0247768 7.2596882,19.0441964 C7.28552339,19.0571429 7.31135857,19.0700893 7.33719376,19.0797991 C7.38240535,19.1024554 7.42761693,19.1251116 7.47605791,19.1477679 C7.47928731,19.1477679 7.4825167,19.1510045 7.4825167,19.1510045 C7.52126949,19.1704241 7.56002227,19.1866071 7.59877506,19.2060268 C7.63429844,19.2222098 7.66659243,19.2383929 7.70211581,19.2545759 C7.76024499,19.2804688 7.81837416,19.3095982 7.87650334,19.3354911 C7.88942094,19.3419643 7.90233853,19.3484375 7.91525612,19.3549107 C8.61926503,19.6720982 9.32973274,19.9407366 10.036971,20.1575893 C11.2157016,20.5168527 12.3944321,20.736942 13.5699332,20.8113839 C13.8056793,20.827567 14.0414254,20.8372768 14.2804009,20.8405134 C14.3546771,20.8405134 14.4257238,20.84375 14.5,20.84375 C14.5064588,20.84375 14.5129176,20.84375 14.5193764,20.84375 C14.5226058,20.84375 14.5290646,20.84375 14.532294,20.84375 C14.548441,20.84375 14.564588,20.84375 14.580735,20.84375 C14.6259465,20.84375 14.6743875,20.84375 14.7195991,20.84375 C16.8316258,20.8113839 18.9694878,20.3129464 21.0815145,19.3581473 C21.0944321,19.3516741 21.1073497,19.3452009 21.1234967,19.3387277 C21.1816258,19.3128348 21.239755,19.286942 21.2978842,19.2578125 C21.3334076,19.2416295 21.3657016,19.2254464 21.4012249,19.2092634 C21.4399777,19.1898438 21.4787305,19.1736607 21.5174833,19.1542411 C21.5207127,19.1542411 21.5239421,19.1510045 21.5239421,19.1510045 C21.5691537,19.1283482 21.6175947,19.105692 21.6628062,19.0830357 C21.6886414,19.0700893 21.7144766,19.0571429 21.7370824,19.047433 C21.7758352,19.0280134 21.8113586,19.0085938 21.8501114,18.9924107 C21.9146993,18.9600446 21.9825167,18.924442 22.0471047,18.8920759 C22.5444321,18.6331473 23.0449889,18.3483259 23.5455457,18.0376116 C23.758686,17.9049107 23.9685969,17.7689732 24.1817372,17.6265625 C24.188196,17.6233259 24.1946548,17.6168527 24.2011136,17.6136161 C24.2398664,17.5877232 24.2786192,17.5618304 24.3173719,17.5359375 C24.3464365,17.5165179 24.3787305,17.4938616 24.4077951,17.474442 C24.4336303,17.4582589 24.4562361,17.4420759 24.4820713,17.4258929 C24.5111359,17.4064732 24.5402004,17.3870536 24.569265,17.3676339 C24.6596882,17.3061384 24.746882,17.2446429 24.8373051,17.1799107 C25.8868597,16.4354911 26.9364143,15.5777902 27.9827394,14.6100446 C28.0473274,14.5485491 28.1151448,14.4870536 28.1797327,14.425558 C28.2120267,14.393192 28.2475501,14.3640625 28.2798441,14.3316964 C28.3121381,14.302567 28.3412027,14.2734375 28.3734967,14.244308 C28.4122494,14.2087054 28.4510022,14.1698661 28.489755,14.1342634 L28.9773942,13.668192 L28.4929844,13.1956473 C28.4510022,13.156808 28.40902,13.1147321 28.3670379,13.0758929 C28.3379733,13.05 28.3121381,13.0241071 28.2830735,12.9982143 C28.2475501,12.9626116 28.2087973,12.9302455 28.1732739,12.8946429 C28.108686,12.8331473 28.0408686,12.7716518 27.9762806,12.7101563 C26.9331849,11.7456473 25.8836303,10.891183 24.8373051,10.1467634 C24.4077951,9.84252232 23.9750557,9.55446429 23.5455457,9.28582589 C22.9900891,8.94274554 22.4378619,8.62879464 21.8856347,8.34720982 C21.8371938,8.32131696 21.7887528,8.29866071 21.7403118,8.27276786 C21.7209354,8.26305804 21.7047884,8.25334821 21.685412,8.246875 C21.6337416,8.22098214 21.5788419,8.19508929 21.5271715,8.16919643 C21.5239421,8.16919643 21.5207127,8.16595982 21.5174833,8.16595982 C21.4851893,8.14977679 21.4496659,8.13359375 21.4173719,8.11741071 C21.3786192,8.09799107 21.3398664,8.07857143 21.3011136,8.06238839 C21.2462138,8.03649554 21.191314,8.01060268 21.1364143,7.98794643 C21.1202673,7.98147321 21.1008909,7.97176339 21.0847439,7.96529018 C18.9694878,7.01049107 16.8348552,6.51205357 14.7228285,6.4796875 C14.6776169,6.4796875 14.6291759,6.4796875 14.5839644,6.4796875 C14.5678174,6.4796875 14.5516704,6.4796875 14.5355234,6.4796875 C14.532294,6.4796875 14.5258352,6.4796875 14.5226058,6.4796875 C14.516147,6.4796875 14.5096882,6.4796875 14.5032294,6.4796875 C14.4289532,6.4796875 14.3579065,6.4796875 14.2836303,6.48292411 C12.1716036,6.51529018 10.036971,7.01372768 7.92171492,7.96852679 C7.90556793,7.975 7.88619154,7.98470982 7.87004454,7.99118304 C7.81514477,8.01707589 7.76024499,8.03973214 7.70534521,8.065625 C7.66659243,8.08504464 7.62783964,8.10122768 7.58908686,8.12064732 C7.55679287,8.13683036 7.52126949,8.15301339 7.4889755,8.16919643 C7.4857461,8.16919643 7.4825167,8.17243304 7.47928731,8.17243304 C7.42761693,8.19832589 7.37594655,8.22421875 7.32104677,8.25011161 C7.30167038,8.25982143 7.28229399,8.26953125 7.26614699,8.27600446 C7.21770601,8.29866071 7.17249443,8.32455357 7.12405345,8.34720982 C6.57182628,8.62879464 6.01636971,8.93950893 5.46091314,9.28582589 C5.03140312,9.55446429 4.5986637,9.83928571 4.16915367,10.1467634 C3.11959911,10.891183 2.07004454,11.7488839 1.02694878,12.7133929 C0.962360802,12.7748884 0.89454343,12.8363839 0.829955457,12.8978795 C0.794432071,12.9302455 0.758908686,12.9658482 0.720155902,12.9982143 C0.691091314,13.0241071 0.665256125,13.05 0.636191537,13.0791295 C0.594209354,13.1179688 0.552227171,13.156808 0.510244989,13.1988839 L0.0258351893,13.6584821 L0.513474388,14.1245536 C0.552227171,14.1601563 0.590979955,14.1989955 0.629732739,14.2345982 C0.662026726,14.2637277 0.691091314,14.2960938 0.723385301,14.3252232 C0.755679287,14.3543527 0.787973274,14.3867188 0.820267261,14.4158482 C0.884855234,14.4773438 0.952672606,14.5388393 1.01726058,14.6003348 C1.08184855,14.6585938 1.14320713,14.7168527 1.2077951,14.7751116 C1.24331849,14.8074777 1.27884187,14.8398438 1.31436526,14.8722098 C1.34020045,14.8981027 1.36926503,14.9207589 1.39510022,14.9466518 C1.4467706,14.9919643 1.49521158,15.0372768 1.54688196,15.0825893 C1.55657016,15.0922991 1.56948775,15.1020089 1.57917595,15.1117188 C3.36826281,16.6976563 5.17349666,17.9664063 6.96258352,18.8920759 C7.02071269,18.924442 7.08853007,18.956808 7.15311804,18.9891741 Z M20.9652561,9.334375 C22.9900891,10.3118304 25.0504454,11.765067 27.1011136,13.6584821 C26.3454343,14.3575893 25.589755,14.9952009 24.8340757,15.571317 C24.4045657,15.9014509 23.9718263,16.2089286 23.5423163,16.4969866 C22.6800668,17.0763393 21.8178174,17.5715402 20.9652561,17.9825893 C20.5971047,18.1606027 20.2257238,18.322433 19.854343,18.471317 C21.0040089,17.1993304 21.701559,15.5098214 21.701559,13.6584821 C21.701559,11.8071429 21.0040089,10.1176339 19.854343,8.84564732 C20.2257238,8.99453125 20.5938753,9.15636161 20.9652561,9.334375 Z M14.5,7.76785714 C17.7455457,7.76785714 20.3775056,10.405692 20.3775056,13.6584821 C20.3775056,16.9112723 17.7455457,19.5491071 14.5,19.5491071 C11.2544543,19.5491071 8.62249443,16.9112723 8.62249443,13.6584821 C8.62249443,10.405692 11.2544543,7.76785714 14.5,7.76785714 Z M4.16592428,15.5680804 C3.41024499,14.9919643 2.6545657,14.3543527 1.89888641,13.6584821 C1.89888641,13.6584821 1.89888641,13.6584821 1.90211581,13.6552455 C3.95278396,11.7585938 6.01314031,10.3053571 8.03474388,9.334375 C8.43841871,9.14017857 8.83886414,8.96216518 9.24253898,8.81004464 C9.24253898,8.81004464 9.24576837,8.81004464 9.24576837,8.80680804 C8.07672606,10.0852679 7.36302895,11.7877232 7.36302895,13.6552455 C7.36302895,13.6584821 7.36302895,13.6584821 7.36302895,13.6617188 C7.36302895,15.5260045 8.07026726,17.2252232 9.23285078,18.5004464 C9.23608018,18.5069196 9.24253898,18.5101562 9.24576837,18.5166295 C8.84209354,18.3547991 8.43841871,18.1767857 8.03474388,17.9825893 C7.18218263,17.5715402 6.31993318,17.0731027 5.45768374,16.49375 C5.02817372,16.205692 4.5954343,15.8982143 4.16592428,15.5680804 Z" id="Shape" fill="#FFFFFF" fill-rule="nonzero"></path>
                <path d="M12.4687082,13.6584821 C12.7044543,13.6584821 12.8949889,13.4675223 12.9014477,13.2344866 L12.9046771,13.2344866 C12.9046771,12.5936384 13.4375278,12.069308 14.0769488,12.0595982 C14.3094655,12.0563616 14.5,11.8589286 14.5,11.6258929 C14.5,11.3896205 14.3094655,11.1954241 14.0769488,11.1921875 C14.0737194,11.1921875 14.0737194,11.1921875 14.07049,11.1921875 L14.0672606,11.1921875 C14.0640312,11.1921875 14.0640312,11.1921875 14.0640312,11.1921875 C12.9466592,11.1986607 12.045657,12.1113839 12.0359688,13.2215402 C12.0359688,13.2247768 12.0359688,13.2247768 12.0359688,13.2247768 L12.0359688,13.2280134 C12.0359688,13.23125 12.0359688,13.2344866 12.0359688,13.2377232 C12.0424276,13.4675223 12.2329621,13.6584821 12.4687082,13.6584821 Z" id="Shape" fill="#FFFFFF" fill-rule="nonzero"></path>
                <path d="M14.5,17.671875 C16.7089087,17.671875 18.5044543,15.8723214 18.5044543,13.6584821 C18.5044543,11.4446429 16.7089087,9.64508929 14.5,9.64508929 C12.2910913,9.64508929 10.4955457,11.4446429 10.4955457,13.6584821 C10.4955457,15.8723214 12.2910913,17.671875 14.5,17.671875 Z M12.0359688,13.2247768 C12.0359688,13.2215402 12.0359688,13.2215402 12.0359688,13.2183036 C12.045657,12.1081473 12.9466592,11.1954241 14.0640312,11.1889509 C14.0672606,11.1889509 14.0672606,11.1889509 14.0672606,11.1889509 L14.07049,11.1889509 C14.0737194,11.1889509 14.0737194,11.1889509 14.0769488,11.1889509 C14.3094655,11.1921875 14.5,11.3863839 14.5,11.6226563 C14.5,11.8589286 14.3094655,12.053125 14.0769488,12.0563616 C13.4375278,12.069308 12.9046771,12.5904018 12.9046771,13.23125 L12.9014477,13.23125 C12.8949889,13.4642857 12.7044543,13.6552455 12.4687082,13.6552455 C12.2329621,13.6552455 12.0424276,13.4642857 12.0359688,13.23125 C12.0359688,13.23125 12.0359688,13.2280134 12.0359688,13.2247768 Z" id="Shape" fill="#1890FF" fill-rule="nonzero"></path>
            </g>
        </g>
    </g>
</svg>